<svg viewBox="0 0 405 625" version="1.1" xmlns="http://www.w3.org/2000/svg" desc="Created with imagetracer-ts 1.0.2" >
 <path fill="rgb(245,245,245)" stroke="rgb(245,245,245)" stroke-width="1" d="M 0 0 L 37.5 0 L 38 3.5 Q 42 11 54.5 10 Q 60.3 6.8 62.5 0 L 74 0.5 L 72.5 2 L 66 3 Q 65.2 8 68.5 10 Q 70.8 12.7 76.5 12 L 80 9.5 L 82 3.5 L 80 0.5 L 129 0 L 129 200 L 0 200 L 0 0 Z M 98.5 11 L 91.5 14 Q 86.2 16.7 85.5 24 L 72.5 18 L 52.5 18 L 43.5 22 Q 40.2 23.1 41 20.5 Q 37 14.5 28.5 13 Q 17.2 13.2 11.5 19 Q 3.4 24.4 1 35.5 L 1 42.5 L 6 53.5 Q 10.1 59.4 17.5 62 L 26.5 62 L 27.5 61 L 32 70.5 L 30 75.5 L 31 80 Q 33.7 81.9 40.5 81 L 54 88.5 L 51 98.5 L 47.5 101 Q 42.8 99.8 41.5 102 Q 25.4 101.1 19 90.5 L 21 86.5 L 20 82.5 Q 18.5 79.5 12.5 81 Q 8.8 82.3 10 88.5 Q 11.8 91.8 16.5 92 L 26.5 101 L 36.5 105 Q 44.2 105.8 48 104 L 43 118.5 L 27 146.5 L 26 151.5 Q 36.2 162.8 55.5 165 L 67 184.5 L 68 189 L 65.5 188 L 62.5 189 L 60 193.5 L 64.5 197 L 77.5 197 L 78.5 198 Q 84.6 198.8 87 197 L 88 194.5 L 85.5 191 L 80.5 191 L 75 193 L 75 180.5 L 74 179.5 Q 75.5 172 73 168.5 L 74.5 167 L 82.5 167 L 93.5 164 L 103 158 L 108 150.5 L 108 147.5 L 96 130.5 L 85 101 L 101.5 100 L 108.5 96 L 112 90.5 L 113.5 89 L 120.5 88 Q 123.6 86.6 123 81.5 L 118.5 79 L 113.5 80 L 107 92.5 L 97.5 98 L 84.5 99 Q 80.5 94.8 80 88 Q 89.9 86.1 95.5 79 L 98.5 80 L 102.5 79 Q 105.8 78.3 105 73.5 L 101 70.5 Q 104.4 64.2 103 54 Q 113.5 55.3 118.5 50 L 126 39.5 L 126 28.5 L 119 15 L 110.5 11 L 98.5 11 Z" />
 <path fill="rgb(245,245,245)" stroke="rgb(245,245,245)" stroke-width="1" d="M 40 0 L 48.5 0 L 49.5 1 L 50.5 0 L 59 0 L 53.5 7 L 48.5 8 L 41 3.5 L 40 0 Z" />
 <path fill="rgb(245,245,245)" stroke="rgb(245,245,245)" stroke-width="1" d="M 76.5 1 L 79 2.5 L 79 6.5 L 77 10 Q 70.6 11.3 69 6.5 Q 67.8 2.8 71.5 4 L 74 5.5 L 76.5 1 Z" />
 <path fill="rgb(245,245,245)" stroke="rgb(245,245,245)" stroke-width="1" d="M 100.5 13 L 101 14.5 L 95 20.5 Q 95.1 26.1 91.5 28 Q 88.2 29.1 89 26.5 L 88 21.5 L 92.5 16 L 100.5 13 Z" />
 <path fill="rgb(245,245,245)" stroke="rgb(245,245,245)" stroke-width="1" d="M 107.5 14 L 111.5 14 L 118 18.5 L 107.5 23 L 102.5 28 Q 100.6 24.4 96 25 L 98 19 L 107.5 14 Z" />
 <path fill="rgb(245,245,245)" stroke="rgb(245,245,245)" stroke-width="1" d="M 25.5 16 L 31 17 L 29 23.5 L 30 23.5 L 33.5 18 L 36 19.5 L 36 21.5 L 31.5 27 Q 29.5 23 27.5 27 L 24.5 28 Q 21.3 26.3 23 19.5 L 25.5 16 Z" />
 <path fill="rgb(245,245,245)" stroke="rgb(245,245,245)" stroke-width="1" d="M 20.5 17 Q 23.3 18.3 21 19.5 L 21 24.5 L 24 30.5 L 24 33.5 L 26 35.5 L 23 36.5 Q 26.8 38.3 23.5 40 Q 12.6 36.9 7 28.5 L 11.5 22 Q 14.5 21.1 13 25.5 L 16.5 31 L 17 29.5 Q 13.3 26.1 14 20 L 20.5 17 Z" />
 <path fill="rgb(245,245,245)" stroke="rgb(245,245,245)" stroke-width="1" d="M 62.5 20 L 75.5 22 L 83 26.5 L 82.5 28 Q 72.4 21.6 53.5 24 L 46 26 Q 44.9 23.3 47.5 24 L 53.5 21 L 61.5 21 L 62.5 20 Z" />
 <path fill="rgb(245,245,245)" stroke="rgb(245,245,245)" stroke-width="1" d="M 37.5 22 L 39 25.5 L 35.5 28 Q 32.8 26.8 35 25.5 L 37.5 22 Z" />
 <path fill="rgb(245,245,245)" stroke="rgb(245,245,245)" stroke-width="1" d="M 115.5 22 L 121 22 L 121 24.5 Q 124.4 27.3 123 34 L 112.5 31 L 101 35 L 101 32.5 L 107.5 26 L 115.5 22 Z" />
 <path fill="rgb(245,245,245)" stroke="rgb(245,245,245)" stroke-width="1" d="M 57.5 25 L 73.5 27 L 91 33.5 L 96 43.5 L 93.5 42 Q 86.9 36.6 76.5 35 L 76.5 36 Q 90.6 39.4 99 48.5 L 100 55 L 97 55.5 L 100 57 L 100 60 L 97 60 Q 98.1 62.7 95.5 62 L 67.5 54 Q 54.9 48.6 47 38.5 L 44 32 L 77.5 52 L 96.5 60 L 95.5 58 Q 70.4 48.1 50 33.5 L 52.5 33 L 76.5 43 L 95.5 54 L 93.5 51 L 73.5 40 L 46 28.5 L 51.5 28 L 69.5 33 L 69.5 32 L 51 26.5 L 57.5 25 Z M 70.5 33 L 70.5 34 L 73.5 35 L 76 34.5 L 70.5 33 Z" />
 <path fill="rgb(245,245,245)" stroke="rgb(245,245,245)" stroke-width="1" d="M 95.5 27 Q 99.5 26.5 100 29.5 L 97.5 33 L 94.5 34 L 92 30.5 L 95.5 27 Z" />
 <path fill="rgb(245,245,245)" stroke="rgb(245,245,245)" stroke-width="1" d="M 27.5 29 Q 32.8 27.8 34 30.5 L 32 35 Q 27.3 36 26 32.5 L 27.5 29 Z" />
 <path fill="rgb(245,245,245)" stroke="rgb(245,245,245)" stroke-width="1" d="M 5 30 L 9 32.5 L 10.5 35 Q 14.7 39.4 22 40 L 18.5 45 Q 14.7 47.7 6.5 46 L 4 43.5 L 4 33.5 L 5 30 Z" />
 <path fill="rgb(245,245,245)" stroke="rgb(245,245,245)" stroke-width="1" d="M 38.5 31 L 39 32.5 L 35 41.5 L 33 56.5 Q 35.5 58 34 63.5 L 32 62.5 L 31 46.5 L 32 41.5 L 38.5 31 Z" />
 <path fill="rgb(245,245,245)" stroke="rgb(245,245,245)" stroke-width="1" d="M 41.5 33 L 44 45.5 Q 41.7 46.8 43 51.5 L 36.5 62 Q 33.1 58.4 35 49.5 L 38.5 38 L 39.5 44 L 40 34.5 L 41.5 33 Z M 38.5 46 L 38 50.5 L 39 50.5 L 38.5 46 Z M 37.5 51 L 37 54.5 L 38 54.5 L 37.5 51 Z M 36.5 56 L 36 59.5 L 37 59.5 L 36.5 56 Z" />
 <path fill="rgb(245,245,245)" stroke="rgb(245,245,245)" stroke-width="1" d="M 112.5 33 L 116.5 33 L 123 36 Q 124 40.7 120.5 42 Q 117.6 38.4 109.5 40 L 105 37 Q 103.8 34 107.5 35 L 112.5 33 Z" />
 <path fill="rgb(245,245,245)" stroke="rgb(245,245,245)" stroke-width="1" d="M 98.5 35 L 100 37.5 Q 98.5 40.5 97 37.5 L 98.5 35 Z" />
 <path fill="rgb(245,245,245)" stroke="rgb(245,245,245)" stroke-width="1" d="M 28.5 37 L 30 40 Q 26.2 41.5 27 38.5 L 28.5 37 Z" />
 <path fill="rgb(245,245,245)" stroke="rgb(245,245,245)" stroke-width="1" d="M 103.5 38 L 107 40.5 Q 107.5 44.5 104.5 45 L 101.5 46 L 99 41.5 L 103.5 38 Z" />
 <path fill="rgb(245,245,245)" stroke="rgb(245,245,245)" stroke-width="1" d="M 47.5 41 L 53.5 48 L 63.5 55 L 78 61.5 L 76 64.5 L 77 67 Q 79.7 68.1 79 65.5 Q 79.8 63.3 83.5 64 L 86.5 68 Q 88.8 68.8 88 66.5 L 88 64.5 L 88.5 63 L 98.5 63 Q 101.2 64.3 99 65.5 Q 96.7 76.2 88.5 81 Q 80.1 87.6 64.5 87 Q 63 84.5 57.5 86 L 45.5 81 L 36 71.5 L 36 67.5 Q 42.1 62.6 45 54.5 L 46 42.5 L 47.5 41 Z M 51.5 62 L 47 65.5 Q 46 70 48.5 71 L 50 68.5 L 54 66 L 56.5 70 L 59 69 L 58 65.5 Q 56.3 62.3 51.5 62 Z M 67 69 L 67 70.5 L 68.5 70 L 71 71.5 L 69 74.5 Q 68.2 77.1 71.5 76 Q 74.3 74.6 73 70 L 67 69 Z M 83.5 74 Q 80.3 79.8 72.5 81 L 66.5 81 L 58.5 78 L 58 80 L 64.5 83 Q 76.6 84.4 82 80 L 84 76.5 L 83.5 74 Z" />
 <path fill="rgb(245,245,245)" stroke="rgb(245,245,245)" stroke-width="1" d="M 110.5 41 L 119 43 Q 119.8 46.8 116.5 48 Q 110.3 48.7 109 44.5 L 110.5 41 Z" />
 <path fill="rgb(245,245,245)" stroke="rgb(245,245,245)" stroke-width="1" d="M 25.5 42 L 29 43.5 L 26.5 48 L 22 45.5 L 23.5 43 L 25.5 42 Z" />
 <path fill="rgb(245,245,245)" stroke="rgb(245,245,245)" stroke-width="1" d="M 19.5 46 L 23 50.5 L 16.5 58 L 14.5 58 L 9 54 L 6 48.5 L 15.5 48 L 19.5 46 Z" />
 <path fill="rgb(245,245,245)" stroke="rgb(245,245,245)" stroke-width="1" d="M 107.5 46 L 112 49.5 Q 110 53 103.5 52 L 102 48 L 107.5 46 Z" />
 <path fill="rgb(245,245,245)" stroke="rgb(245,245,245)" stroke-width="1" d="M 25.5 49 L 28 50.5 Q 29.5 56.5 26.5 58 L 20.5 59 L 22 56.5 L 25.5 49 Z" />
 <path fill="rgb(245,245,245)" stroke="rgb(245,245,245)" stroke-width="1" d="M 99 73 L 103 74.5 L 101.5 77 L 98 78 L 99 73 Z" />
 <path fill="rgb(245,245,245)" stroke="rgb(245,245,245)" stroke-width="1" d="M 33.5 74 L 37 79 Q 30.4 81.1 33.5 74 Z" />
 <path fill="rgb(245,245,245)" stroke="rgb(245,245,245)" stroke-width="1" d="M 116.5 81 L 120 82 Q 120.8 85.8 117.5 87 Q 113.8 87.8 113 85.5 L 114 82 L 116.5 81 Z" />
 <path fill="rgb(245,245,245)" stroke="rgb(245,245,245)" stroke-width="1" d="M 14.5 82 Q 18.5 81.5 19 84.5 Q 19.8 89.3 16.5 90 L 12 87.5 Q 11.3 82.8 14.5 82 Z" />
 <path fill="rgb(245,245,245)" stroke="rgb(245,245,245)" stroke-width="1" d="M 57 89 Q 61.9 90.8 70.5 90 L 71.5 89 L 78 89 Q 83.9 126.4 105 149.5 L 97.5 158 L 85.5 163 L 67.5 164 L 45.5 159 L 29 150.5 Q 48.2 124.3 57 89 Z" />
 <path fill="rgb(245,245,245)" stroke="rgb(245,245,245)" stroke-width="1" d="M 60 166 L 72 167 L 71.5 187 Q 64 177.7 60 166 Z" />
 <path fill="rgb(245,245,245)" stroke="rgb(245,245,245)" stroke-width="1" d="M 66.5 191 L 71 193.5 Q 71.9 196.9 66.5 195 L 65 192.5 L 66.5 191 Z" />
 <path fill="rgb(245,245,245)" stroke="rgb(245,245,245)" stroke-width="1" d="M 80.5 193 Q 85.9 191.1 85 194.5 Q 83.8 197.3 78.5 196 L 80.5 193 Z" />
</svg>