<svg viewBox="0 0 300 200" version="1.1" xmlns="http://www.w3.org/2000/svg" desc="Created with imagetracer-ts 1.0.2" >
 <path fill="rgb(68,62,60)" stroke="rgb(68,62,60)" stroke-width="1" opacity="0.4" d="M 161.5 0 L 209 0.5 L 161.5 1 L 161.5 0 Z" />
 <path fill="rgb(68,62,60)" stroke="rgb(68,62,60)" stroke-width="1" opacity="0.4" d="M 280.5 0 L 300 0.5 L 280.5 1 L 280.5 0 Z" />
 <path fill="rgb(68,62,60)" stroke="rgb(68,62,60)" stroke-width="1" opacity="0.4" d="M 220.5 1 L 269 1.5 L 220.5 2 L 220.5 1 Z" />
 <path fill="rgb(68,62,60)" stroke="rgb(68,62,60)" stroke-width="1" opacity="0.4" d="M 160.5 2 L 209 2.5 L 160.5 3 L 160.5 2 Z" />
 <path fill="rgb(68,62,60)" stroke="rgb(68,62,60)" stroke-width="1" opacity="0.4" d="M 279.5 2 L 300 2.5 L 279.5 3 L 279.5 2 Z" />
 <path fill="rgb(68,62,60)" stroke="rgb(68,62,60)" stroke-width="1" opacity="0.4" d="M 219.5 3 L 270 3.5 L 219.5 4 L 219.5 3 Z" />
 <path fill="rgb(68,62,60)" stroke="rgb(68,62,60)" stroke-width="1" opacity="0.4" d="M 158.5 4 L 210 4.5 L 158.5 5 L 158.5 4 Z" />
 <path fill="rgb(68,62,60)" stroke="rgb(68,62,60)" stroke-width="1" opacity="0.4" d="M 278.5 4 L 300 4.5 L 278.5 5 L 278.5 4 Z" />
 <path fill="rgb(68,62,60)" stroke="rgb(68,62,60)" stroke-width="1" opacity="0.4" d="M 218.5 5 L 271 5.5 L 218.5 6 L 218.5 5 Z" />
 <path fill="rgb(68,62,60)" stroke="rgb(68,62,60)" stroke-width="1" opacity="0.4" d="M 159.5 6 L 211 6.5 L 159.5 7 L 159.5 6 Z" />
 <path fill="rgb(68,62,60)" stroke="rgb(68,62,60)" stroke-width="1" opacity="0.4" d="M 278.5 6 L 300 6.5 L 278.5 7 L 278.5 6 Z" />
 <path fill="rgb(68,62,60)" stroke="rgb(68,62,60)" stroke-width="1" opacity="0.4" d="M 107.5 7 L 114.5 7 Q 113.5 10 118.5 9 L 120.5 11 L 125.5 11 Q 126.9 14.6 132.5 14 L 135 16.5 L 141 25.5 L 141 29 L 145 29.5 L 143 30.5 L 143 32.5 L 144 37.5 L 144 39.5 L 144 41.5 L 140 46.5 L 140 51.5 L 138 57.5 L 133 63.5 L 130 71.5 L 133.5 76 L 136 77.5 L 126 82.5 L 128 83.5 L 124.5 85 L 121 86.5 L 132 92.5 L 124.5 93 L 120.5 92 L 115 94 L 116.5 97 L 119 98.5 L 119.5 100 L 133.5 100 L 134.5 101 L 152.5 101 L 155 102.5 L 152 104.5 L 152.5 106 L 128 106.5 L 153 107.5 L 126 108.5 L 152 109.5 L 122 110.5 L 152 111.5 L 119 112.5 L 151 113.5 L 116 114.5 L 151 115.5 L 114 116.5 L 151 117.5 L 102.5 118 L 102.5 117 L 112 116.5 L 102 115.5 L 112 114.5 L 101 113.5 L 113 112.5 L 101 111.5 L 113 110.5 L 101 109.5 L 113 108.5 L 100 107.5 L 113 106.5 L 100 105.5 L 114 104.5 L 99 103.5 L 114 102.5 L 99 101.5 L 117 100.5 L 93.5 100 L 93.5 101 L 96 101.5 L 93 102.5 Q 95.3 103.8 92.5 105 L 70 105.5 L 93 106.5 L 67 107.5 L 92 108.5 L 65 109.5 L 92 110.5 L 61 111.5 L 92 112.5 L 58 113.5 L 91 114.5 L 55 115.5 L 91 116.5 L 53 117.5 L 91 118.5 L 42.5 119 L 42.5 118 L 52 117.5 L 42 116.5 L 52 115.5 L 41 114.5 L 53 113.5 L 41 112.5 L 53 111.5 L 41 110.5 L 53 109.5 L 40 108.5 L 53 107.5 L 40 106.5 L 54 105.5 L 40 104.5 L 54 103.5 L 39 102.5 L 55 101.5 L 39.5 101 L 37.5 100 L 34.5 101 L 33.5 100 L 14.5 100 L 14.5 101 L 32.5 101 L 33 106 L 9 106.5 L 33 107.5 L 6 108.5 L 32 109.5 L 3 110.5 L 32 111.5 L 0 112 L 0 82.5 L 1.5 81 Q 11.5 74.1 26 73 L 27 68 L 29.5 67 L 45.5 67 L 45 68.5 L 44 71.5 L 51.5 72 L 52.5 71 L 63.5 70 L 66.5 68 L 77.5 67 L 79 67.5 L 79 64.5 Q 73.1 59.9 70.5 52 L 68 53.5 L 70 50 Q 67.3 51.1 68 48.5 L 65 43.5 L 65 41.5 L 64.5 40 L 63 40.5 L 65 36.5 L 63 32.5 L 71 16 L 85.5 9 L 97.5 8 L 101.5 9 L 107.5 7 Z M 86.5 37 L 87.5 39 L 89 38.5 L 86.5 37 Z M 30.5 71 L 30.5 72 L 33 71.5 L 30.5 71 Z M 74.5 101 L 74.5 102 L 93 101.5 L 74.5 101 Z M 13.5 102 L 13.5 103 L 32 102.5 L 13.5 102 Z M 132.5 102 L 132.5 103 L 152 102.5 L 132.5 102 Z M 72.5 103 L 72.5 104 L 92 103.5 L 72.5 103 Z M 11.5 104 L 11.5 105 L 31 104.5 L 11.5 104 Z M 131.5 104 L 131.5 105 L 151 104.5 L 131.5 104 Z" />
 <path fill="rgb(68,62,60)" stroke="rgb(68,62,60)" stroke-width="1" opacity="0.4" d="M 218.5 7 L 270 7.5 L 218.5 8 L 218.5 7 Z" />
 <path fill="rgb(68,62,60)" stroke="rgb(68,62,60)" stroke-width="1" opacity="0.4" d="M 158.5 8 L 211 8.5 L 158.5 9 L 158.5 8 Z" />
 <path fill="rgb(68,62,60)" stroke="rgb(68,62,60)" stroke-width="1" opacity="0.4" d="M 278.5 8 L 300 8.5 L 278.5 9 L 278.5 8 Z" />
 <path fill="rgb(68,62,60)" stroke="rgb(68,62,60)" stroke-width="1" opacity="0.4" d="M 218.5 9 L 271 9.5 L 218.5 10 L 218.5 9 Z" />
 <path fill="rgb(68,62,60)" stroke="rgb(68,62,60)" stroke-width="1" opacity="0.4" d="M 157.5 10 L 211 10.5 L 157.5 11 L 157.5 10 Z" />
 <path fill="rgb(68,62,60)" stroke="rgb(68,62,60)" stroke-width="1" opacity="0.4" d="M 277.5 10 L 300 10.5 L 277.5 11 L 277.5 10 Z" />
 <path fill="rgb(68,62,60)" stroke="rgb(68,62,60)" stroke-width="1" opacity="0.4" d="M 217.5 11 L 271 11.5 L 217.5 12 L 217.5 11 Z" />
 <path fill="rgb(68,62,60)" stroke="rgb(68,62,60)" stroke-width="1" opacity="0.4" d="M 157.5 12 L 211 12.5 L 157.5 13 L 157.5 12 Z" />
 <path fill="rgb(68,62,60)" stroke="rgb(68,62,60)" stroke-width="1" opacity="0.4" d="M 277.5 12 L 300 12.5 L 277.5 13 L 277.5 12 Z" />
 <path fill="rgb(68,62,60)" stroke="rgb(68,62,60)" stroke-width="1" opacity="0.4" d="M 216.5 13 L 272 13.5 L 216.5 14 L 216.5 13 Z" />
 <path fill="rgb(68,62,60)" stroke="rgb(68,62,60)" stroke-width="1" opacity="0.4" d="M 156.5 14 L 212 14.5 L 156.5 15 L 156.5 14 Z" />
 <path fill="rgb(68,62,60)" stroke="rgb(68,62,60)" stroke-width="1" opacity="0.4" d="M 276.5 14 L 300 14.5 L 276.5 15 L 276.5 14 Z" />
 <path fill="rgb(68,62,60)" stroke="rgb(68,62,60)" stroke-width="1" opacity="0.4" d="M 216.5 15 L 273 15.5 L 216.5 16 L 216.5 15 Z" />
 <path fill="rgb(68,62,60)" stroke="rgb(68,62,60)" stroke-width="1" opacity="0.4" d="M 156.5 16 L 213 16.5 L 156.5 17 L 156.5 16 Z" />
 <path fill="rgb(68,62,60)" stroke="rgb(68,62,60)" stroke-width="1" opacity="0.4" d="M 276.5 16 L 300 16.5 L 276.5 17 L 276.5 16 Z" />
 <path fill="rgb(68,62,60)" stroke="rgb(68,62,60)" stroke-width="1" opacity="0.4" d="M 150.5 17 L 153 17.5 L 150.5 18 L 150.5 17 Z" />
 <path fill="rgb(68,62,60)" stroke="rgb(68,62,60)" stroke-width="1" opacity="0.4" d="M 216.5 17 L 274 17.5 L 216.5 18 L 216.5 17 Z" />
 <path fill="rgb(68,62,60)" stroke="rgb(68,62,60)" stroke-width="1" opacity="0.4" d="M 156.5 18 L 214 18.5 L 156.5 19 L 156.5 18 Z" />
 <path fill="rgb(68,62,60)" stroke="rgb(68,62,60)" stroke-width="1" opacity="0.4" d="M 276.5 18 L 300 18.5 L 276.5 19 L 276.5 18 Z" />
 <path fill="rgb(68,62,60)" stroke="rgb(68,62,60)" stroke-width="1" opacity="0.4" d="M 150.5 19 L 154 19.5 L 150.5 20 L 150.5 19 Z" />
 <path fill="rgb(68,62,60)" stroke="rgb(68,62,60)" stroke-width="1" opacity="0.4" d="M 216.5 19 L 273 19.5 L 216.5 20 L 216.5 19 Z" />
 <path fill="rgb(68,62,60)" stroke="rgb(68,62,60)" stroke-width="1" opacity="0.4" d="M 156.5 20 L 213 20.5 L 156.5 21 L 156.5 20 Z" />
 <path fill="rgb(68,62,60)" stroke="rgb(68,62,60)" stroke-width="1" opacity="0.4" d="M 276.5 20 L 300 20.5 L 276.5 21 L 276.5 20 Z" />
 <path fill="rgb(68,62,60)" stroke="rgb(68,62,60)" stroke-width="1" opacity="0.4" d="M 150.5 21 L 153 21.5 L 150.5 22 L 150.5 21 Z" />
 <path fill="rgb(68,62,60)" stroke="rgb(68,62,60)" stroke-width="1" opacity="0.4" d="M 216.5 21 L 273 21.5 L 216.5 22 L 216.5 21 Z" />
 <path fill="rgb(68,62,60)" stroke="rgb(68,62,60)" stroke-width="1" opacity="0.4" d="M 155.5 22 L 214 22.5 L 155.5 23 L 155.5 22 Z" />
 <path fill="rgb(68,62,60)" stroke="rgb(68,62,60)" stroke-width="1" opacity="0.4" d="M 275.5 22 L 300 22.5 L 275.5 23 L 275.5 22 Z" />
 <path fill="rgb(68,62,60)" stroke="rgb(68,62,60)" stroke-width="1" opacity="0.4" d="M 150.5 23 L 154 23.5 L 150.5 24 L 150.5 23 Z" />
 <path fill="rgb(68,62,60)" stroke="rgb(68,62,60)" stroke-width="1" opacity="0.4" d="M 215.5 23 L 274 23.5 L 215.5 24 L 215.5 23 Z" />
 <path fill="rgb(68,62,60)" stroke="rgb(68,62,60)" stroke-width="1" opacity="0.4" d="M 155.5 24 L 214 24.5 L 155 25.5 L 214.5 26 L 215.5 25 L 299.5 24 L 299.5 25 L 275 25.5 L 300 26.5 L 275 27.5 L 300 28.5 L 275 29.5 L 300 30.5 L 275 31.5 L 300 32.5 L 275 33.5 L 300 34.5 L 275 35.5 L 300 36.5 L 279 37.5 L 300 38.5 L 279 39.5 L 300 40.5 L 278 41.5 L 300 42.5 L 277 43.5 L 300 44.5 L 277 45.5 L 300 46.5 L 276 47.5 L 300 48.5 L 276 49.5 L 300 50.5 L 277 51.5 L 300 52.5 L 277 53.5 L 300 54.5 L 277 55.5 L 300 56.5 L 277 57.5 L 300 58.5 L 278 59.5 L 300 60.5 L 277 61.5 L 300 62.5 L 277 63.5 L 300 64.5 L 277 65.5 L 300 66.5 L 277 67.5 L 300 68.5 L 277 69.5 L 300 70.5 L 276 71.5 L 300 72.5 L 276 73.5 L 300 74.5 L 276 75.5 L 300 76.5 L 275 77.5 L 300 78.5 L 275 79.5 L 300 80.5 L 297 81.5 L 300 82.5 L 276.5 83 L 276.5 82 L 295 81.5 L 275.5 81 L 274.5 82 L 215.5 82 L 214.5 81 L 178.5 81 L 178.5 82 L 214 82.5 L 156.5 83 L 156.5 82 L 176 81.5 L 155.5 81 L 150.5 82 L 150.5 81 L 155 80.5 L 149.5 80 Q 145.6 73.4 136 72.5 L 139.5 72 L 147.5 75 L 153.5 75 L 153.5 74 L 150 73.5 L 154 72.5 L 150 72 L 150 65 L 152.5 65 L 152.5 64 L 150 63.5 L 153 62.5 L 150 61.5 L 153 60.5 L 150 59.5 L 154 58.5 L 150 57.5 L 154 56.5 L 150 55.5 L 154 54.5 L 150 53.5 L 153 52.5 L 150 51.5 L 153 50.5 L 150 49.5 L 153 48.5 L 150 47.5 L 152 46.5 L 150 45.5 L 153 44.5 L 150 43.5 L 153 42.5 L 150 41.5 L 154 40.5 L 150 39.5 L 154 38.5 L 150 37.5 L 154 36.5 L 150 35.5 L 154 34.5 L 150 33.5 L 154 32.5 L 150 31.5 L 155 30.5 L 150 29.5 L 155 28.5 L 150 27.5 L 155 26.5 L 150 25.5 L 155.5 24 Z M 215.5 26 L 215.5 27 L 275 26.5 L 215.5 26 Z M 155.5 27 L 155.5 28 L 215 27.5 L 155.5 27 Z M 215.5 28 L 215.5 29 L 275 28.5 L 215.5 28 Z M 155.5 29 L 155.5 30 L 215 29.5 L 155.5 29 Z M 215.5 30 L 215.5 31 L 275 30.5 L 215.5 30 Z M 155.5 31 L 155.5 32 L 214 31.5 L 155.5 31 Z M 215.5 32 L 215.5 33 L 274 32.5 L 215.5 32 Z M 155.5 33 L 155.5 34 L 214 33.5 L 155.5 33 Z M 215.5 34 L 215.5 35 L 274 34.5 L 215.5 34 Z M 155.5 35 L 155.5 36 L 214 35.5 L 155.5 35 Z M 215.5 36 L 215.5 37 L 274 36.5 L 215.5 36 Z M 156.5 37 L 156.5 38 L 214 37.5 L 156.5 37 Z M 219.5 38 L 219.5 39 L 274 38.5 L 219.5 38 Z M 159.5 39 L 159.5 40 L 214 39.5 L 159.5 39 Z M 216.5 40 L 216.5 41 L 274 40.5 L 216.5 40 Z M 158.5 41 L 158.5 42 L 214 41.5 L 158.5 41 Z M 216.5 42 L 216.5 43 L 273 42.5 L 216.5 42 Z M 157.5 43 L 157.5 44 L 213 43.5 L 157.5 43 Z M 217.5 44 L 217.5 45 L 273 44.5 L 217.5 44 Z M 157.5 45 L 157.5 46 L 212 45.5 L 157.5 45 Z M 216.5 46 L 216.5 47 L 272 46.5 L 216.5 46 Z M 156.5 47 L 156.5 48 L 212 47.5 L 156.5 47 Z M 216.5 48 L 216.5 49 L 273 48.5 L 216.5 48 Z M 156.5 49 L 156.5 50 L 213 49.5 L 156.5 49 Z M 216.5 50 L 216.5 51 L 273 50.5 L 216.5 50 Z M 157.5 51 L 157.5 52 L 213 51.5 L 157.5 51 Z M 216.5 52 L 216.5 53 L 273 52.5 L 216.5 52 Z M 156.5 53 L 156.5 54 L 213 53.5 L 156.5 53 Z M 217.5 54 L 217.5 55 L 274 54.5 L 217.5 54 Z M 157.5 55 L 157.5 56 L 214 55.5 L 157.5 55 Z M 217.5 56 L 217.5 57 L 274 56.5 L 217.5 56 Z M 157.5 57 L 157.5 58 L 214 57.5 L 157.5 57 Z M 217.5 58 L 217.5 59 L 274 58.5 L 217.5 58 Z M 158.5 59 L 158.5 60 L 213 59.5 L 158.5 59 Z M 217.5 60 L 217.5 61 L 273 60.5 L 217.5 60 Z M 157.5 61 L 157.5 62 L 213 61.5 L 157.5 61 Z M 217.5 62 L 217.5 63 L 273 62.5 L 217.5 62 Z M 157.5 63 L 157.5 64 L 213 63.5 L 157.5 63 Z M 217.5 64 L 217.5 65 L 272 64.5 L 217.5 64 Z M 157.5 65 L 157.5 66 L 160 65.5 L 157.5 65 Z M 161.5 65 L 161.5 66 L 212 65.5 L 161.5 65 Z M 219.5 66 L 219.5 67 L 270 66.5 L 219.5 66 Z M 159.5 67 L 159.5 68 L 210 67.5 L 159.5 67 Z M 217.5 68 L 217.5 69 L 270 68.5 L 217.5 68 Z M 157.5 69 L 157.5 70 L 210 69.5 L 157.5 69 Z M 211.5 69 L 211.5 70 L 214 69.5 L 211.5 69 Z M 151.5 70 L 151.5 71 L 154 70.5 L 151.5 70 Z M 216.5 70 L 216.5 71 L 270 70.5 L 216.5 70 Z M 271.5 70 L 271.5 71 L 274 70.5 L 271.5 70 Z M 156.5 71 L 156.5 72 L 210 71.5 L 156.5 71 Z M 211.5 71 L 211.5 72 L 214 71.5 L 211.5 71 Z M 216.5 72 L 216.5 73 L 274 72.5 L 216.5 72 Z M 156.5 73 L 156.5 74 L 214 73.5 L 156.5 73 Z M 216.5 74 L 216.5 75 L 275 74.5 L 216.5 74 Z M 156.5 75 L 156.5 76 L 215 75.5 L 156.5 75 Z M 150.5 76 L 150.5 77 L 155 76.5 L 150.5 76 Z M 215.5 76 L 215.5 77 L 247 76.5 L 215.5 76 Z M 248.5 76 L 248.5 77 L 275 76.5 L 248.5 76 Z M 155.5 77 L 155.5 78 L 185 77.5 L 155.5 77 Z M 186.5 77 L 186.5 78 L 215 77.5 L 186.5 77 Z M 150.5 78 L 150.5 79 L 155 78.5 L 150.5 78 Z M 215.5 78 L 215.5 79 L 242 78.5 L 215.5 78 Z M 244.5 78 L 244.5 79 L 275 78.5 L 244.5 78 Z M 155.5 79 L 155.5 80 L 181 79.5 L 155.5 79 Z M 182.5 79 L 182.5 80 L 215 79.5 L 182.5 79 Z M 215.5 80 L 215.5 81 L 238 80.5 L 215.5 80 Z M 239.5 80 L 239.5 81 L 275 80.5 L 239.5 80 Z" />
 <path fill="rgb(68,62,60)" stroke="rgb(68,62,60)" stroke-width="1" opacity="0.4" d="M 17.5 54 L 24 54.5 L 15 57 Q 13.9 54.3 16.5 55 L 17.5 54 Z" />
 <path fill="rgb(68,62,60)" stroke="rgb(68,62,60)" stroke-width="1" opacity="0.4" d="M 150.5 83 L 154 83.5 L 150.5 84 L 150.5 83 Z" />
 <path fill="rgb(68,62,60)" stroke="rgb(68,62,60)" stroke-width="1" opacity="0.4" d="M 216.5 83 L 274 83.5 L 216.5 84 L 216.5 83 Z" />
 <path fill="rgb(68,62,60)" stroke="rgb(68,62,60)" stroke-width="1" opacity="0.4" d="M 156.5 84 L 214 84.5 L 177 85.5 L 214 86.5 L 156.5 87 L 156.5 86 L 176 85.5 L 156.5 85 L 156.5 84 Z" />
 <path fill="rgb(68,62,60)" stroke="rgb(68,62,60)" stroke-width="1" opacity="0.4" d="M 276.5 84 L 300 84.5 L 276.5 85 L 276.5 84 Z" />
 <path fill="rgb(68,62,60)" stroke="rgb(68,62,60)" stroke-width="1" opacity="0.4" d="M 150.5 85 L 154 85.5 L 150.5 86 L 150.5 85 Z" />
 <path fill="rgb(68,62,60)" stroke="rgb(68,62,60)" stroke-width="1" opacity="0.4" d="M 216.5 85 L 274 85.5 L 216.5 86 L 216.5 85 Z" />
 <path fill="rgb(68,62,60)" stroke="rgb(68,62,60)" stroke-width="1" opacity="0.4" d="M 276.5 86 L 300 86.5 L 276.5 87 L 276.5 86 Z" />
 <path fill="rgb(68,62,60)" stroke="rgb(68,62,60)" stroke-width="1" opacity="0.4" d="M 150.5 87 L 154 87.5 L 150.5 88 L 150.5 87 Z" />
 <path fill="rgb(68,62,60)" stroke="rgb(68,62,60)" stroke-width="1" opacity="0.4" d="M 216.5 87 L 274 87.5 L 216.5 88 L 216.5 87 Z" />
 <path fill="rgb(68,62,60)" stroke="rgb(68,62,60)" stroke-width="1" opacity="0.4" d="M 156.5 88 L 214 88.5 L 156.5 89 L 156.5 88 Z" />
 <path fill="rgb(68,62,60)" stroke="rgb(68,62,60)" stroke-width="1" opacity="0.4" d="M 276.5 88 L 300 88.5 L 276.5 89 L 276.5 88 Z" />
 <path fill="rgb(68,62,60)" stroke="rgb(68,62,60)" stroke-width="1" opacity="0.4" d="M 150.5 89 L 154 89.5 L 150.5 90 L 150.5 89 Z" />
 <path fill="rgb(68,62,60)" stroke="rgb(68,62,60)" stroke-width="1" opacity="0.4" d="M 216.5 89 L 274 89.5 L 270 90.5 L 274 91.5 L 220 92.5 L 274 93.5 L 257 94.5 L 274 95.5 L 256 96.5 L 274 97.5 L 255 98.5 L 273 99.5 L 254 100.5 L 272.5 101 L 274 102.5 L 272.5 104 L 250 104.5 L 273 105.5 L 247 106.5 L 272 107.5 L 245 108.5 L 272 109.5 L 241 110.5 L 272 111.5 L 238 112.5 L 271 113.5 L 235 114.5 L 271 115.5 L 233 116.5 L 271 117.5 L 222.5 118 L 222.5 117 L 232 116.5 L 222 115.5 L 232 114.5 L 221 113.5 L 233 112.5 L 221 111.5 L 233 110.5 L 221 109.5 L 233 108.5 L 220 107.5 L 233 106.5 L 220 105.5 L 234 104.5 L 219 103.5 L 234 102.5 L 219 101.5 L 236 100.5 L 219 99.5 L 242 98.5 L 217 97.5 L 248 96.5 L 217 95.5 L 254 94.5 L 218 93.5 L 218.5 92 L 217 91.5 L 269 90.5 L 216.5 90 L 216.5 89 Z M 252.5 102 L 252.5 103 L 272 102.5 L 252.5 102 Z" />
 <path fill="rgb(68,62,60)" stroke="rgb(68,62,60)" stroke-width="1" opacity="0.4" d="M 156.5 90 L 214 90.5 L 156.5 91 L 156.5 90 Z" />
 <path fill="rgb(68,62,60)" stroke="rgb(68,62,60)" stroke-width="1" opacity="0.4" d="M 277.5 90 L 300 90.5 L 281 91.5 L 300 92.5 L 279 93.5 L 300 94.5 L 277 95.5 L 300 96.5 L 277.5 97 Q 274.3 95.3 278 93.5 Q 277.3 91.3 279.5 92 L 279.5 91 Q 276.5 91.5 277.5 90 Z" />
 <path fill="rgb(68,62,60)" stroke="rgb(68,62,60)" stroke-width="1" opacity="0.4" d="M 150.5 91 L 154 91.5 L 150.5 92 L 150.5 91 Z" />
 <path fill="rgb(68,62,60)" stroke="rgb(68,62,60)" stroke-width="1" opacity="0.4" d="M 157.5 92 L 214 92.5 L 211 93.5 L 214 94.5 L 197 95.5 L 214 96.5 L 196 97.5 L 213.5 98 L 218 99.5 L 214.5 100 L 213.5 99 L 195.5 99 L 195.5 100 L 212.5 100 L 216 101.5 L 213 102 L 212.5 105 L 189.5 105 L 189.5 106 L 213 106.5 L 187 107.5 L 212 108.5 L 185 109.5 L 212 110.5 L 181 111.5 L 212 112.5 L 176 113.5 L 211 114.5 L 174 115.5 L 211 116.5 L 162.5 117 L 162.5 116 L 172 115.5 L 161 114.5 L 173 113.5 L 161 112.5 L 173 111.5 L 161 110.5 L 173 109.5 L 160 108.5 L 173 107.5 L 160 106.5 L 174 105.5 L 160 104.5 L 174 103.5 L 159 102.5 L 174 101.5 L 159 100.5 L 180 99.5 L 155 98.5 L 186 97.5 L 157.5 97 L 156 95.5 L 157.5 96 L 192 95.5 L 158 94.5 L 210 93.5 L 157.5 93 L 157.5 92 Z M 193.5 101 L 193.5 102 L 213 101.5 L 193.5 101 Z M 191.5 103 L 191.5 104 L 212 103.5 L 191.5 103 Z" />
 <path fill="rgb(68,62,60)" stroke="rgb(68,62,60)" stroke-width="1" opacity="0.4" d="M 150.5 93 L 154 93.5 L 150.5 94 L 150.5 93 Z" />
 <path fill="rgb(68,62,60)" stroke="rgb(68,62,60)" stroke-width="1" opacity="0.4" d="M 149.5 95 L 154 95.5 L 150 96.5 L 154 97.5 L 150 98.5 L 153 99.5 L 147 100 Q 146.3 96.2 149.5 95 Z" />
 <path fill="rgb(68,62,60)" stroke="rgb(68,62,60)" stroke-width="1" opacity="0.4" d="M 275.5 98 L 278 98.5 L 275.5 99 L 275.5 98 Z" />
 <path fill="rgb(68,62,60)" stroke="rgb(68,62,60)" stroke-width="1" opacity="0.4" d="M 279.5 98 L 300 98 L 300 113 L 296 113.5 L 300 114.5 L 294 115.5 L 300 116.5 L 282.5 117 L 282.5 116 L 292 115.5 L 281 114.5 L 292 113.5 L 281 112.5 L 293 111.5 L 281 110.5 L 293 109.5 L 281 108.5 L 293 107.5 L 280 106.5 L 293 105.5 L 280 104.5 L 294 103.5 L 279 102.5 L 294 101.5 L 279 100.5 L 299 99.5 L 279.5 99 L 279.5 98 Z" />
 <path fill="rgb(68,62,60)" stroke="rgb(68,62,60)" stroke-width="1" opacity="0.4" d="M 154.5 100 L 157 100.5 L 154.5 101 L 154.5 100 Z" />
 <path fill="rgb(68,62,60)" stroke="rgb(68,62,60)" stroke-width="1" opacity="0.4" d="M 274.5 100 L 277 100.5 L 274.5 101 L 274.5 100 Z" />
 <path fill="rgb(68,62,60)" stroke="rgb(68,62,60)" stroke-width="1" opacity="0.4" d="M 34.5 102 L 37 102.5 L 34.5 103 L 34.5 102 Z" />
 <path fill="rgb(68,62,60)" stroke="rgb(68,62,60)" stroke-width="1" opacity="0.4" d="M 0.5 113 L 32 113.5 L 0.5 114 L 0.5 113 Z" />
 <path fill="rgb(68,62,60)" stroke="rgb(68,62,60)" stroke-width="1" opacity="0.4" d="M 0.5 115 L 31 115.5 L 0.5 116 L 0.5 115 Z" />
 <path fill="rgb(68,62,60)" stroke="rgb(68,62,60)" stroke-width="1" opacity="0.4" d="M 0.5 117 L 31 117.5 L 0.5 118 L 0.5 117 Z" />
 <path fill="rgb(68,62,60)" stroke="rgb(68,62,60)" stroke-width="1" opacity="0.4" d="M 163.5 118 L 210 118.5 L 163.5 119 L 163.5 118 Z" />
 <path fill="rgb(68,62,60)" stroke="rgb(68,62,60)" stroke-width="1" opacity="0.4" d="M 283.5 118 L 300 118.5 L 283.5 119 L 283.5 118 Z" />
 <path fill="rgb(68,62,60)" stroke="rgb(68,62,60)" stroke-width="1" opacity="0.4" d="M 0.5 119 L 30 119.5 L 0.5 120 L 0.5 119 Z" />
 <path fill="rgb(68,62,60)" stroke="rgb(68,62,60)" stroke-width="1" opacity="0.4" d="M 103.5 119 L 150 119.5 L 103.5 120 L 103.5 119 Z" />
 <path fill="rgb(68,62,60)" stroke="rgb(68,62,60)" stroke-width="1" opacity="0.4" d="M 223.5 119 L 270 119.5 L 223.5 120 L 223.5 119 Z" />
 <path fill="rgb(68,62,60)" stroke="rgb(68,62,60)" stroke-width="1" opacity="0.4" d="M 43.5 120 L 90 120.5 L 43.5 121 L 43.5 120 Z" />
 <path fill="rgb(68,62,60)" stroke="rgb(68,62,60)" stroke-width="1" opacity="0.4" d="M 163.5 120 L 210 120.5 L 163.5 121 L 163.5 120 Z" />
 <path fill="rgb(68,62,60)" stroke="rgb(68,62,60)" stroke-width="1" opacity="0.4" d="M 283.5 120 L 300 120.5 L 283.5 121 L 283.5 120 Z" />
 <path fill="rgb(68,62,60)" stroke="rgb(68,62,60)" stroke-width="1" opacity="0.4" d="M 0.5 121 L 30 121.5 L 0.5 122 L 0.5 121 Z" />
 <path fill="rgb(68,62,60)" stroke="rgb(68,62,60)" stroke-width="1" opacity="0.4" d="M 103.5 121 L 150 121.5 L 139 122.5 L 149 123.5 L 139 124.5 L 149 125.5 L 105.5 126 L 105.5 125 L 138 124.5 L 104 123.5 L 138 122.5 L 103.5 122 L 103.5 121 Z" />
 <path fill="rgb(68,62,60)" stroke="rgb(68,62,60)" stroke-width="1" opacity="0.4" d="M 223.5 121 L 270 121.5 L 223.5 122 L 223.5 121 Z" />
 <path fill="rgb(68,62,60)" stroke="rgb(68,62,60)" stroke-width="1" opacity="0.4" d="M 44.5 122 L 90 122.5 L 44.5 123 L 44.5 122 Z" />
 <path fill="rgb(68,62,60)" stroke="rgb(68,62,60)" stroke-width="1" opacity="0.4" d="M 164.5 122 L 209 122.5 L 199 123.5 L 209 124.5 L 164.5 125 L 164.5 124 L 198 123.5 L 164.5 123 L 164.5 122 Z" />
 <path fill="rgb(68,62,60)" stroke="rgb(68,62,60)" stroke-width="1" opacity="0.4" d="M 284.5 122 L 300 122.5 L 284.5 123 L 284.5 122 Z" />
 <path fill="rgb(68,62,60)" stroke="rgb(68,62,60)" stroke-width="1" opacity="0.4" d="M 0.5 123 L 29 123.5 L 19 124.5 L 29 125.5 L 0.5 126 L 0.5 125 L 18 124.5 L 0.5 124 L 0.5 123 Z" />
 <path fill="rgb(68,62,60)" stroke="rgb(68,62,60)" stroke-width="1" opacity="0.4" d="M 224.5 123 L 269 123.5 L 259 124.5 L 269 125.5 L 258 126.5 L 268 127.5 L 258 128.5 L 269 129.5 L 258 130.5 L 270 131.5 L 258 132.5 L 268 133.5 L 259 134.5 L 268 135.5 L 259 136.5 L 268 137.5 L 258 138.5 L 267 139.5 L 259 140.5 L 267 141.5 L 259 142.5 L 267.5 144 L 300 144.5 L 271 145.5 L 300 146.5 L 274 147.5 L 300 148.5 L 277 149.5 L 300 150 L 300 199.5 L 299.5 200 L 0 200 L 0 151.5 L 1 150.5 L 0.5 149 L 2 148.5 L 0 147.5 L 2 146.5 L 0 145.5 L 3 144.5 L 0 143.5 L 3 142.5 L 0 141.5 L 3 140.5 L 0 139.5 L 4 138.5 L 0 137.5 L 4 136.5 L 0 135.5 L 12 134.5 L 0 133.5 L 17 132.5 L 0 131.5 L 17 130.5 L 0 129.5 L 17 128.5 L 0 127.5 L 27.5 127 L 27.5 128 L 18 128.5 L 29 129.5 L 18 130.5 L 30 131.5 L 18 132.5 L 28 133.5 L 19 134.5 L 27 135.5 L 19 136.5 L 28 137.5 L 19 138.5 L 27 139.5 L 18 140.5 L 27 141.5 L 19 142.5 L 27.5 144 L 62.5 144 L 62.5 143 L 30 142.5 L 63 141.5 L 32 140.5 L 64 139.5 L 35 138.5 L 64 137.5 L 40 136.5 L 65 135.5 L 45 134.5 L 76 133.5 L 45 132.5 L 77 131.5 L 45 130.5 L 77 129.5 L 45 128.5 L 77 127.5 L 45 126.5 L 88.5 126 L 88.5 127 L 78 127.5 L 89 128.5 L 78 129.5 L 90 130.5 L 78 131.5 L 91 132.5 L 79 133.5 L 87 134.5 L 79 135.5 L 88 136.5 L 79 137.5 L 88 138.5 L 78 139.5 L 87 140.5 L 79 141.5 L 87.5 143 L 122.5 143 L 122.5 142 L 91 141.5 L 123 140.5 L 94 139.5 L 124 138.5 L 95 137.5 L 124 136.5 L 101 135.5 L 129 134.5 L 105 133.5 L 137 132.5 L 105 131.5 L 137 130.5 L 105 129.5 L 137 128.5 L 105 127.5 L 147.5 127 L 147.5 128 L 138 128.5 L 149 129.5 L 138 130.5 L 150 131.5 L 138 132.5 L 148 133.5 L 139 134.5 L 147 135.5 L 139 136.5 L 148 137.5 L 139 138.5 L 147 139.5 L 138 140.5 L 147 141.5 L 139 142.5 L 147.5 144 L 182.5 144 L 182.5 143 L 149 142.5 L 183 141.5 L 152 140.5 L 183 139.5 L 154 138.5 L 184 137.5 L 159 136.5 L 184 135.5 L 161 134.5 L 194 133.5 L 165 132.5 L 197 131.5 L 165 130.5 L 197 129.5 L 165 128.5 L 197 127.5 L 165 126.5 L 207.5 126 L 207.5 127 L 198 127.5 L 209 128.5 L 198 129.5 L 210 130.5 L 198 131.5 L 208 132.5 L 199 133.5 L 207 134.5 L 199 135.5 L 208 136.5 L 199 137.5 L 208 138.5 L 198 139.5 L 207 140.5 L 199 141.5 L 207.5 143 L 242.5 143 L 242.5 142 L 210 141.5 L 243 140.5 L 213 139.5 L 244 138.5 L 215 137.5 L 244 136.5 L 220 135.5 L 247 134.5 L 225 133.5 L 257 132.5 L 225 131.5 L 257 130.5 L 225 129.5 L 257 128.5 L 225 127.5 L 257 126.5 L 225 125.5 L 258 124.5 L 224.5 124 L 224.5 123 Z M 11.5 136 L 11.5 137 L 14 136.5 L 11.5 136 Z M 79.5 143 L 79.5 144 L 87 143.5 L 79.5 143 Z M 198.5 143 L 198.5 144 L 206 143.5 L 198.5 143 Z M 18.5 144 L 18.5 145 L 25 144.5 L 18.5 144 Z M 87.5 144 L 87.5 145 L 123 144.5 L 87.5 144 Z M 138.5 144 L 138.5 145 L 144 144.5 L 138.5 144 Z M 210.5 144 L 210.5 145 L 243 144.5 L 210.5 144 Z M 258.5 144 L 258.5 145 L 264 144.5 L 258.5 144 Z M 30.5 145 L 30.5 146 L 63 145.5 L 30.5 145 Z M 78.5 145 L 78.5 146 L 83 145.5 L 78.5 145 Z M 150.5 145 L 150.5 146 L 183 145.5 L 150.5 145 Z M 198.5 145 L 198.5 146 L 202 145.5 L 198.5 145 Z M 91.5 146 L 91.5 147 L 122 146.5 L 91.5 146 Z M 207.5 146 L 207.5 147 L 210 146.5 L 207.5 146 Z M 212.5 146 L 212.5 147 L 242 146.5 L 212.5 146 Z M 27.5 147 L 27.5 148 L 30 147.5 L 27.5 147 Z M 32.5 147 L 32.5 148 L 62 147.5 L 32.5 147 Z M 153.5 147 L 153.5 148 L 182 147.5 L 153.5 147 Z M 268.5 147 L 268.5 148 L 271 147.5 L 268.5 147 Z M 88.5 148 L 88.5 149 L 92 148.5 L 88.5 148 Z M 94.5 148 L 94.5 149 L 122 148.5 L 94.5 148 Z M 208.5 148 L 208.5 149 L 212 148.5 L 208.5 148 Z M 215.5 148 L 215.5 149 L 242 148.5 L 215.5 148 Z M 29.5 149 L 29.5 150 L 33 149.5 L 29.5 149 Z M 36.5 149 L 36.5 150 L 62 149.5 L 36.5 149 Z M 149.5 149 L 149.5 150 L 153 149.5 L 149.5 149 Z M 156.5 149 L 156.5 150 L 181 149.5 L 156.5 149 Z M 269.5 149 L 269.5 150 L 273 149.5 L 269.5 149 Z M 89.5 150 L 89.5 151 L 94 150.5 L 89.5 150 Z M 97.5 150 L 97.5 151 L 120 150.5 L 97.5 150 Z M 209.5 150 L 209.5 151 L 214 150.5 L 209.5 150 Z M 218.5 150 L 218.5 151 L 240 150.5 L 218.5 150 Z M 30.5 151 L 30.5 152 L 35 151.5 L 30.5 151 Z M 38.5 151 L 38.5 152 L 59 151.5 L 38.5 151 Z M 150.5 151 L 150.5 152 L 155 151.5 L 150.5 151 Z M 159.5 151 L 159.5 152 L 179 151.5 L 159.5 151 Z M 270.5 151 L 270.5 152 L 275 151.5 L 270.5 151 Z M 279.5 151 L 279.5 152 L 298 151.5 L 279.5 151 Z M 90.5 152 L 90.5 153 L 96 152.5 L 90.5 152 Z M 99.5 152 L 99.5 153 L 117 152.5 L 99.5 152 Z M 211.5 152 L 211.5 153 L 216 152.5 L 211.5 152 Z M 220.5 152 L 220.5 153 L 236 152.5 L 220.5 152 Z M 31.5 153 L 31.5 154 L 36 153.5 L 31.5 153 Z M 40.5 153 L 40.5 154 L 55 153.5 L 40.5 153 Z M 151.5 153 L 151.5 154 L 156 153.5 L 151.5 153 Z M 161.5 153 L 161.5 154 L 175 153.5 L 161.5 153 Z M 272.5 153 L 272.5 154 L 277 153.5 L 272.5 153 Z M 281.5 153 L 281.5 154 L 294 153.5 L 281.5 153 Z M 92.5 154 L 92.5 155 L 97 154.5 L 92.5 154 Z M 101.5 154 L 101.5 155 L 114 154.5 L 101.5 154 Z M 212.5 154 L 212.5 155 L 217 154.5 L 212.5 154 Z M 221.5 154 L 221.5 155 L 234 154.5 L 221.5 154 Z M 32.5 155 L 32.5 156 L 37 155.5 L 32.5 155 Z M 42.5 155 L 42.5 156 L 53 155.5 L 42.5 155 Z M 153.5 155 L 153.5 156 L 157 155.5 L 153.5 155 Z M 162.5 155 L 162.5 156 L 173 155.5 L 162.5 155 Z M 273.5 155 L 273.5 156 L 277 155.5 L 273.5 155 Z M 282.5 155 L 282.5 156 L 292 155.5 L 282.5 155 Z M 93.5 156 L 93.5 157 L 97 156.5 L 93.5 156 Z M 102.5 156 L 102.5 157 L 112 156.5 L 102.5 156 Z M 213.5 156 L 213.5 157 L 218 156.5 L 213.5 156 Z M 222.5 156 L 222.5 157 L 231 156.5 L 222.5 156 Z M 33.5 157 L 33.5 158 L 38 157.5 L 33.5 157 Z M 42.5 157 L 42.5 158 L 51 157.5 L 42.5 157 Z M 154.5 157 L 154.5 158 L 158 157.5 L 154.5 157 Z M 162.5 157 L 162.5 158 L 171 157.5 L 162.5 157 Z M 274.5 157 L 274.5 158 L 278 157.5 L 274.5 157 Z M 282.5 157 L 282.5 158 L 290 157.5 L 282.5 157 Z M 94.5 158 L 94.5 159 L 98 158.5 L 94.5 158 Z M 102.5 158 L 102.5 159 L 110 158.5 L 102.5 158 Z M 214.5 158 L 214.5 159 L 218 158.5 L 214.5 158 Z M 222.5 158 L 222.5 159 L 230 158.5 L 222.5 158 Z M 34.5 159 L 34.5 160 L 38 159.5 L 34.5 159 Z M 42.5 159 L 42.5 160 L 49 159.5 L 42.5 159 Z M 155.5 159 L 155.5 160 L 158 159.5 L 155.5 159 Z M 162.5 159 L 162.5 160 L 169 159.5 L 162.5 159 Z M 275.5 159 L 275.5 160 L 279 159.5 L 275.5 159 Z M 282.5 159 L 282.5 160 L 289 159.5 L 282.5 159 Z M 95.5 160 L 95.5 161 L 99 160.5 L 95.5 160 Z M 102.5 160 L 102.5 161 L 109 160.5 L 102.5 160 Z M 215.5 160 L 215.5 161 L 219 160.5 L 215.5 160 Z M 222.5 160 L 222.5 161 L 229 160.5 L 222.5 160 Z M 35.5 161 L 35.5 162 L 39 161.5 L 35.5 161 Z M 42.5 161 L 42.5 162 L 48 161.5 L 42.5 161 Z M 155.5 161 L 155.5 162 L 159 161.5 L 155.5 161 Z M 162.5 161 L 162.5 162 L 168 161.5 L 162.5 161 Z M 275.5 161 L 275.5 162 L 279 161.5 L 275.5 161 Z M 282.5 161 L 282.5 162 L 288 161.5 L 282.5 161 Z M 95.5 162 L 95.5 163 L 99 162.5 L 95.5 162 Z M 102.5 162 L 102.5 163 L 108 162.5 L 102.5 162 Z M 215.5 162 L 215.5 163 L 219 162.5 L 215.5 162 Z M 222.5 162 L 222.5 163 L 227 162.5 L 222.5 162 Z M 35.5 163 L 35.5 164 L 39 163.5 L 35.5 163 Z M 42.5 163 L 42.5 164 L 47 163.5 L 42.5 163 Z M 155.5 163 L 155.5 164 L 160 163.5 L 155.5 163 Z M 162.5 163 L 162.5 164 L 167 163.5 L 162.5 163 Z M 275.5 163 L 275.5 164 L 280 163.5 L 275.5 163 Z M 282.5 163 L 282.5 164 L 287 163.5 L 282.5 163 Z M 95.5 164 L 95.5 165 L 100 164.5 L 95.5 164 Z M 102.5 164 L 102.5 165 L 106 164.5 L 102.5 164 Z M 215.5 164 L 215.5 165 L 220 164.5 L 215.5 164 Z M 222.5 164 L 222.5 165 L 226 164.5 L 222.5 164 Z M 34.5 165 L 34.5 166 L 40 165.5 L 34.5 165 Z M 42.5 165 L 42.5 166 L 46 165.5 L 42.5 165 Z M 154.5 165 L 154.5 166 L 160 165.5 L 154.5 165 Z M 162.5 165 L 162.5 166 L 166 165.5 L 162.5 165 Z M 274.5 165 L 274.5 166 L 280 165.5 L 274.5 165 Z M 282.5 165 L 282.5 166 L 285 165.5 L 282.5 165 Z M 93.5 166 L 93.5 167 L 100 166.5 L 93.5 166 Z M 102.5 166 L 102.5 167 L 105 166.5 L 102.5 166 Z M 213.5 166 L 213.5 167 L 220 166.5 L 213.5 166 Z M 222.5 166 L 222.5 167 L 225 166.5 L 222.5 166 Z M 33.5 167 L 33.5 168 L 41 167.5 L 33.5 167 Z M 42.5 167 L 42.5 168 L 45 167.5 L 42.5 167 Z M 153.5 167 L 153.5 168 L 161 167.5 L 153.5 167 Z M 272.5 167 L 272.5 168 L 281 167.5 L 272.5 167 Z M 92.5 168 L 92.5 169 L 101 168.5 L 92.5 168 Z M 211.5 168 L 211.5 169 L 221 168.5 L 211.5 168 Z M 31.5 169 L 31.5 170 L 41 169.5 L 31.5 169 Z M 150.5 169 L 150.5 170 L 161 169.5 L 150.5 169 Z M 270.5 169 L 270.5 170 L 281 169.5 L 270.5 169 Z M 90.5 170 L 90.5 171 L 101 170.5 L 90.5 170 Z M 209.5 170 L 209.5 171 L 221 170.5 L 209.5 170 Z M 29.5 171 L 29.5 172 L 41 171.5 L 29.5 171 Z M 149.5 171 L 149.5 172 L 161 171.5 L 149.5 171 Z M 269.5 171 L 269.5 172 L 281 171.5 L 269.5 171 Z M 89.5 172 L 89.5 173 L 101 172.5 L 89.5 172 Z M 209.5 172 L 209.5 173 L 221 172.5 L 209.5 172 Z M 34.5 173 L 34.5 174 L 41 173.5 L 34.5 173 Z M 155.5 173 L 155.5 174 L 161 173.5 L 155.5 173 Z M 277.5 173 L 277.5 174 L 281 173.5 L 277.5 173 Z M 98.5 174 L 98.5 175 L 101 174.5 L 98.5 174 Z M 92.5 186 L 92.5 187 L 98 186.5 L 92.5 186 Z M 212.5 186 L 212.5 187 L 219 186.5 L 212.5 186 Z M 32.5 187 L 32.5 188 L 40 187.5 L 32.5 187 Z M 152.5 187 L 152.5 188 L 160 187.5 L 152.5 187 Z M 272.5 187 L 272.5 188 L 280 187.5 L 272.5 187 Z M 92.5 188 L 92.5 189 L 101 188.5 L 92.5 188 Z M 212.5 188 L 212.5 189 L 221 188.5 L 212.5 188 Z M 32.5 189 L 32.5 190 L 41 189.5 L 32.5 189 Z M 152.5 189 L 152.5 190 L 161 189.5 L 152.5 189 Z M 273.5 189 L 273.5 190 L 281 189.5 L 273.5 189 Z M 93.5 190 L 93.5 191 L 101 190.5 L 93.5 190 Z M 214.5 190 L 214.5 191 L 222 190.5 L 214.5 190 Z M 34.5 191 L 34.5 192 L 42 191.5 L 34.5 191 Z M 154.5 191 L 154.5 192 L 162 191.5 L 154.5 191 Z M 275.5 191 L 275.5 192 L 282 191.5 L 275.5 191 Z M 95.5 192 L 95.5 193 L 102 192.5 L 95.5 192 Z M 215.5 192 L 215.5 193 L 222 192.5 L 215.5 192 Z M 35.5 193 L 35.5 194 L 42 193.5 L 35.5 193 Z M 155.5 193 L 155.5 194 L 162 193.5 L 155.5 193 Z M 276.5 193 L 276.5 194 L 282 193.5 L 276.5 193 Z M 97.5 194 L 97.5 195 L 102 194.5 L 97.5 194 Z M 217.5 194 L 217.5 195 L 221 194.5 L 217.5 194 Z M 37.5 195 L 37.5 196 L 41 195.5 L 37.5 195 Z M 158.5 195 L 158.5 196 L 161 195.5 L 158.5 195 Z M 278.5 195 L 278.5 196 L 281 195.5 L 278.5 195 Z" />
 <path fill="rgb(68,62,60)" stroke="rgb(68,62,60)" stroke-width="1" opacity="0.4" d="M 44.5 124 L 89 124.5 L 44.5 125 L 44.5 124 Z" />
 <path fill="rgb(68,62,60)" stroke="rgb(68,62,60)" stroke-width="1" opacity="0.4" d="M 284.5 124 L 300 124.5 L 284.5 125 L 284.5 124 Z" />
 <path fill="rgb(68,62,60)" stroke="rgb(68,62,60)" stroke-width="1" opacity="0.4" d="M 285.5 126 L 300 126.5 L 285.5 127 L 285.5 126 Z" />
 <path fill="rgb(68,62,60)" stroke="rgb(68,62,60)" stroke-width="1" opacity="0.4" d="M 285.5 128 L 300 128.5 L 285.5 129 L 285.5 128 Z" />
 <path fill="rgb(68,62,60)" stroke="rgb(68,62,60)" stroke-width="1" opacity="0.4" d="M 285.5 130 L 300 130.5 L 285.5 131 L 285.5 130 Z" />
 <path fill="rgb(68,62,60)" stroke="rgb(68,62,60)" stroke-width="1" opacity="0.4" d="M 285.5 132 L 300 132.5 L 285.5 133 L 285.5 132 Z" />
 <path fill="rgb(68,62,60)" stroke="rgb(68,62,60)" stroke-width="1" opacity="0.4" d="M 281.5 134 L 300 134.5 L 281.5 135 L 281.5 134 Z" />
 <path fill="rgb(68,62,60)" stroke="rgb(68,62,60)" stroke-width="1" opacity="0.4" d="M 276.5 136 L 300 136.5 L 276.5 137 L 276.5 136 Z" />
 <path fill="rgb(68,62,60)" stroke="rgb(68,62,60)" stroke-width="1" opacity="0.4" d="M 274.5 138 L 300 138.5 L 274.5 139 L 274.5 138 Z" />
 <path fill="rgb(68,62,60)" stroke="rgb(68,62,60)" stroke-width="1" opacity="0.4" d="M 272.5 140 L 300 140.5 L 272.5 141 L 272.5 140 Z" />
 <path fill="rgb(68,62,60)" stroke="rgb(68,62,60)" stroke-width="1" opacity="0.4" d="M 268.5 142 L 300 142.5 L 268.5 143 L 268.5 142 Z" />
 <path fill="rgb(197,191,184)" stroke="rgb(197,191,184)" stroke-width="1" opacity="0.8" d="M 0 0 L 160.5 0 L 161.5 1 L 208.5 1 L 209.5 0 L 279.5 0 L 280.5 1 L 300 1.5 L 279 2.5 L 300 3.5 L 278 4.5 L 300 5.5 L 278 6.5 L 300 7.5 L 278 8.5 L 300 9.5 L 277 10.5 L 300 11.5 L 277 12.5 L 300 13.5 L 276 14.5 L 300 15.5 L 276 16.5 L 300 17.5 L 276 18.5 L 300 19.5 L 276 20.5 L 300 21.5 L 275 22.5 L 300 23.5 L 275 24.5 L 300 25.5 L 275 26.5 L 300 27.5 L 275 28.5 L 300 29.5 L 275 30.5 L 300 31.5 L 275.5 32 L 274.5 31 L 155.5 30 L 155.5 31 L 214 31.5 L 155.5 32 L 150.5 31 L 150.5 32 L 154 32.5 L 150 33.5 L 154 34.5 L 150 35.5 L 154 36.5 L 150 37.5 L 154 38.5 L 150 39.5 L 154 40.5 L 150 41.5 L 153 42.5 L 150 43.5 L 153 44.5 L 150 45.5 L 152 46.5 L 150 47.5 L 153 48.5 L 150 49.5 L 153 50.5 L 150 51.5 L 153 52.5 L 150 53.5 L 154 54.5 L 150 55.5 L 154 56.5 L 150 57.5 L 154 58.5 L 150 59.5 L 153 60.5 L 150 61.5 L 153 62.5 L 150 63.5 L 153 64.5 L 150 65 L 150 72 L 153.5 72 L 153.5 73 L 150 73.5 L 154 74.5 L 147.5 75 L 140.5 73 L 140.5 74 Q 147.2 74.7 149.5 80 L 154.5 80 L 154.5 79 L 150 78.5 L 155 77.5 L 150 76.5 L 154.5 76 L 155.5 77 L 185 77.5 L 155 78.5 L 181 79.5 L 155 80.5 L 176 81.5 L 156 82.5 L 213.5 83 L 213.5 82 L 178 81.5 L 215 80.5 L 182 79.5 L 215 78.5 L 186 77.5 L 215 76.5 L 156 75.5 L 214.5 75 L 215.5 76 L 247 76.5 L 215 77.5 L 242 78.5 L 215 79.5 L 238 80.5 L 215 81.5 L 274.5 82 L 274.5 81 L 239 80.5 L 275 79.5 L 244 78.5 L 275 77.5 L 248 76.5 L 274.5 76 L 275.5 77 L 300 77.5 L 275 78.5 L 300 79.5 L 275 80.5 L 295 81.5 L 276 82.5 L 300 83.5 L 276 84.5 L 300 85.5 L 276 86.5 L 300 87.5 L 276 88.5 L 300 89.5 L 277 90.5 L 280 91.5 L 278 92 L 277 94.5 L 300 95.5 L 277 96.5 L 300 97.5 L 279 98.5 L 299 99.5 L 279 100.5 L 294 101.5 L 279 102.5 L 294 103.5 L 280 104.5 L 293 105.5 L 280 106.5 L 293 107.5 L 281 108.5 L 293 109.5 L 281 110.5 L 293 111.5 L 281 112.5 L 292 113.5 L 281 114.5 L 292 115.5 L 282 116.5 L 300 117.5 L 283 118.5 L 300 119.5 L 283 120.5 L 300 121.5 L 284 122.5 L 300 123.5 L 284 124.5 L 300 125.5 L 285 126.5 L 300 127.5 L 285 128.5 L 300 129.5 L 285 130.5 L 300 131.5 L 285 132.5 L 300 133.5 L 281 134.5 L 300 135.5 L 276 136.5 L 300 137.5 L 274 138.5 L 300 139.5 L 272 140.5 L 300 141.5 L 268 142.5 L 300 143.5 L 267.5 144 L 259 142.5 L 267 141.5 L 259 140.5 L 267 139.5 L 258 138.5 L 268 137.5 L 259 136.5 L 268 135.5 L 259 134.5 L 268 133.5 L 258 132.5 L 270 131.5 L 258 130.5 L 269 129.5 L 258 128.5 L 268 127.5 L 258 126.5 L 269 125.5 L 259 124.5 L 269 123.5 L 224.5 123 L 224.5 124 L 258 124.5 L 225 125.5 L 257 126.5 L 225 127.5 L 257 128.5 L 225 129.5 L 257 130.5 L 225 131.5 L 257 132.5 L 225 133.5 L 247 134.5 L 220 135.5 L 244 136.5 L 215 137.5 L 244 138.5 L 213 139.5 L 243 140.5 L 210 141.5 L 243 142.5 L 207.5 143 L 199 141.5 L 207 140.5 L 198 139.5 L 208 138.5 L 199 137.5 L 208 136.5 L 199 135.5 L 207 134.5 L 199 133.5 L 208 132.5 L 198 131.5 L 210 130.5 L 198 129.5 L 209 128.5 L 198 127.5 L 208 126.5 L 165.5 126 L 165.5 127 L 197 127.5 L 165 128.5 L 197 129.5 L 165 130.5 L 197 131.5 L 165 132.5 L 194 133.5 L 161 134.5 L 184 135.5 L 159 136.5 L 184 137.5 L 154 138.5 L 183 139.5 L 152 140.5 L 183 141.5 L 149 142.5 L 183 143.5 L 147.5 144 L 139 142.5 L 147 141.5 L 138 140.5 L 147 139.5 L 139 138.5 L 148 137.5 L 139 136.5 L 147 135.5 L 139 134.5 L 148 133.5 L 138 132.5 L 150 131.5 L 138 130.5 L 149 129.5 L 138 128.5 L 148 127.5 L 105.5 127 L 105.5 128 L 137 128.5 L 105 129.5 L 137 130.5 L 105 131.5 L 137 132.5 L 105 133.5 L 129 134.5 L 101 135.5 L 124 136.5 L 95 137.5 L 124 138.5 L 94 139.5 L 123 140.5 L 91 141.5 L 123 142.5 L 87 143.5 L 123 144.5 L 87.5 145 L 79 143.5 L 87 142.5 L 79 141.5 L 87 140.5 L 78 139.5 L 88 138.5 L 79 137.5 L 88 136.5 L 79 135.5 L 87 134.5 L 79 133.5 L 91 132.5 L 78 131.5 L 90 130.5 L 78 129.5 L 89 128.5 L 78 127.5 L 89 126.5 L 45.5 126 L 45.5 127 L 77 127.5 L 45 128.5 L 77 129.5 L 45 130.5 L 77 131.5 L 45 132.5 L 76 133.5 L 45 134.5 L 65 135.5 L 40 136.5 L 64 137.5 L 35 138.5 L 64 139.5 L 32 140.5 L 63 141.5 L 30 142.5 L 63 143.5 L 27.5 144 L 19 142.5 L 27 141.5 L 18 140.5 L 27 139.5 L 19 138.5 L 28 137.5 L 19 136.5 L 27 135.5 L 19 134.5 L 28 133.5 L 18 132.5 L 30 131.5 L 18 130.5 L 29 129.5 L 18 128.5 L 28 127.5 L 0 126.5 L 29 125.5 L 19 124.5 L 29 123.5 L 0 122.5 L 30 121.5 L 0 120.5 L 30 119.5 L 0 118.5 L 31 117.5 L 0 116.5 L 31 115.5 L 0 114.5 L 32 113.5 L 0 112.5 L 32 111.5 L 3 110.5 L 32 109.5 L 6 108.5 L 33 107.5 L 9 106.5 L 33 106 L 32.5 101 L 14.5 101 L 14.5 100 L 33.5 100 L 36.5 101 L 38.5 100 L 39.5 101 L 55 101.5 L 39 102.5 L 54 103.5 L 40 104.5 L 54 105.5 L 40 106.5 L 53 107.5 L 40 108.5 L 53 109.5 L 41 110.5 L 53 111.5 L 41 112.5 L 53 113.5 L 41 114.5 L 52 115.5 L 42 116.5 L 52 117.5 L 42 118.5 L 90.5 119 L 90.5 118 L 53 117.5 L 91 116.5 L 55 115.5 L 91 114.5 L 58 113.5 L 92 112.5 L 61 111.5 L 92 110.5 L 65 109.5 L 92 108.5 L 67 107.5 L 93 106.5 L 70 105.5 L 92.5 105 L 94 103.5 L 92.5 102 L 74 101.5 L 92.5 101 L 93.5 100 L 116.5 100 L 116.5 101 L 99 101.5 L 114 102.5 L 99 103.5 L 114 104.5 L 100 105.5 L 113 106.5 L 100 107.5 L 113 108.5 L 101 109.5 L 113 110.5 L 101 111.5 L 113 112.5 L 101 113.5 L 112 114.5 L 102 115.5 L 112 116.5 L 102 117.5 L 150.5 118 L 150.5 117 L 114 116.5 L 151 115.5 L 116 114.5 L 151 113.5 L 119 112.5 L 152 111.5 L 122 110.5 L 152 109.5 L 126 108.5 L 153 107.5 L 128 106.5 L 153 105.5 Q 150.8 104.3 153.5 103 L 155 102.5 L 152.5 101 L 119 100 L 117.5 97 L 115 95.5 Q 114.3 93.3 116.5 94 L 123.5 92 Q 125.3 94.7 131.5 93 L 131.5 92 L 127.5 91 L 121 86.5 L 125.5 84 Q 126.8 86.3 128 83.5 L 126 82.5 L 136 77.5 L 131 73.5 L 130 71.5 L 133 63.5 L 138 57.5 L 140 51.5 L 140 46.5 L 144 41.5 L 144 39.5 L 143 36.5 L 142 31.5 L 145 29.5 L 141 29 L 141 25.5 L 132.5 14 Q 126.9 14.6 125.5 11 L 120.5 11 Q 119.3 8 115 9 L 114.5 7 L 107.5 7 L 98.5 9 L 97.5 8 L 89.5 8 L 71 16 L 67 22.5 L 63 33.5 L 65 37.5 L 64 39.5 L 66 42.5 L 66 44.5 L 68 50 Q 70.7 48.9 70 51.5 Q 72.9 59.6 79 64.5 L 79 67.5 L 76.5 69 L 76.5 68 L 78 67.5 L 73.5 67 L 58.5 71 L 44.5 72 L 45 70.5 L 46 67.5 L 29.5 67 L 27 68 L 26 73 Q 10.5 74.2 0.5 82 L 0 0 Z M 220.5 1 L 220.5 2 L 269 1.5 L 220.5 1 Z M 160.5 2 L 160.5 3 L 209 2.5 L 160.5 2 Z M 219.5 3 L 219.5 4 L 270 3.5 L 219.5 3 Z M 158.5 4 L 158.5 5 L 210 4.5 L 158.5 4 Z M 218.5 5 L 218.5 6 L 271 5.5 L 218.5 5 Z M 159.5 6 L 159.5 7 L 211 6.5 L 159.5 6 Z M 218.5 7 L 218.5 8 L 270 7.5 L 218.5 7 Z M 158.5 8 L 158.5 9 L 211 8.5 L 158.5 8 Z M 218.5 9 L 218.5 10 L 271 9.5 L 218.5 9 Z M 157.5 10 L 157.5 11 L 211 10.5 L 157.5 10 Z M 217.5 11 L 217.5 12 L 271 11.5 L 217.5 11 Z M 157.5 12 L 157.5 13 L 211 12.5 L 157.5 12 Z M 216.5 13 L 216.5 14 L 272 13.5 L 216.5 13 Z M 156.5 14 L 156.5 15 L 212 14.5 L 156.5 14 Z M 216.5 15 L 216.5 16 L 273 15.5 L 216.5 15 Z M 156.5 16 L 156.5 17 L 213 16.5 L 156.5 16 Z M 150.5 17 L 150.5 18 L 153 17.5 L 150.5 17 Z M 216.5 17 L 216.5 18 L 274 17.5 L 216.5 17 Z M 156.5 18 L 156.5 19 L 214 18.5 L 156.5 18 Z M 150.5 19 L 150.5 20 L 154 19.5 L 150.5 19 Z M 216.5 19 L 216.5 20 L 273 19.5 L 216.5 19 Z M 156.5 20 L 156.5 21 L 213 20.5 L 156.5 20 Z M 150.5 21 L 150.5 22 L 153 21.5 L 150.5 21 Z M 216.5 21 L 216.5 22 L 273 21.5 L 216.5 21 Z M 155.5 22 L 155.5 23 L 214 22.5 L 155.5 22 Z M 150.5 23 L 150.5 24 L 154 23.5 L 150.5 23 Z M 215.5 23 L 215.5 24 L 274 23.5 L 215.5 23 Z M 155.5 24 L 155.5 25 L 214 24.5 L 155.5 24 Z M 150.5 25 L 150.5 26 L 155 25.5 L 150.5 25 Z M 215.5 25 L 215.5 26 L 275 25.5 L 215.5 25 Z M 155.5 26 L 155.5 27 L 215 26.5 L 155.5 26 Z M 150.5 27 L 150.5 28 L 155 27.5 L 150.5 27 Z M 215.5 27 L 215.5 28 L 275 27.5 L 215.5 27 Z M 155.5 28 L 155.5 29 L 215 28.5 L 155.5 28 Z M 150.5 29 L 150.5 30 L 155 29.5 L 150.5 29 Z M 215.5 29 L 215.5 30 L 275 29.5 L 215.5 29 Z M 17.5 54 L 16.5 55 Q 13.9 54.3 15 57 L 24 54.5 L 17.5 54 Z M 136.5 72 L 136.5 73 L 140 72.5 L 136.5 72 Z M 150.5 81 L 150.5 82 L 155 81.5 L 150.5 81 Z M 150.5 83 L 150.5 84 L 154 83.5 L 150.5 83 Z M 216.5 83 L 216.5 84 L 274 83.5 L 216.5 83 Z M 156.5 84 L 156.5 85 L 176 85.5 L 156.5 86 L 156.5 87 L 214 86.5 L 177 85.5 L 214 84.5 L 156.5 84 Z M 150.5 85 L 150.5 86 L 154 85.5 L 150.5 85 Z M 216.5 85 L 216.5 86 L 274 85.5 L 216.5 85 Z M 150.5 87 L 150.5 88 L 154 87.5 L 150.5 87 Z M 216.5 87 L 216.5 88 L 274 87.5 L 216.5 87 Z M 156.5 88 L 156.5 89 L 214 88.5 L 156.5 88 Z M 150.5 89 L 150.5 90 L 154 89.5 L 150.5 89 Z M 216.5 89 L 216.5 90 L 269 90.5 L 217 91.5 L 218.5 92 L 218 93.5 L 254 94.5 L 217 95.5 L 248 96.5 L 217 97.5 L 242 98.5 L 219 99.5 L 236 100.5 L 219 101.5 L 234 102.5 L 219 103.5 L 234 104.5 L 220 105.5 L 233 106.5 L 220 107.5 L 233 108.5 L 221 109.5 L 233 110.5 L 221 111.5 L 233 112.5 L 221 113.5 L 232 114.5 L 222 115.5 L 232 116.5 L 222.5 117 L 222.5 118 L 271 117.5 L 233 116.5 L 271 115.5 L 235 114.5 L 271 113.5 L 238 112.5 L 272 111.5 L 241 110.5 L 272 109.5 L 245 108.5 L 272 107.5 L 247 106.5 L 273 105.5 L 250 104.5 L 272.5 104 L 274 102.5 L 272.5 101 L 254 100.5 L 273 99.5 L 255 98.5 L 274 97.5 L 256 96.5 L 274 95.5 L 257 94.5 L 274 93.5 L 220 92.5 L 274 91.5 L 270 90.5 L 274 89.5 L 216.5 89 Z M 156.5 90 L 156.5 91 L 214 90.5 L 156.5 90 Z M 150.5 91 L 150.5 92 L 154 91.5 L 150.5 91 Z M 157.5 92 L 157.5 93 L 210 93.5 L 158 94.5 L 192 95.5 L 157 96.5 L 186 97.5 L 155 98.5 L 180 99.5 L 159 100.5 L 174 101.5 L 159 102.5 L 174 103.5 L 160 104.5 L 174 105.5 L 160 106.5 L 173 107.5 L 160 108.5 L 173 109.5 L 161 110.5 L 173 111.5 L 161 112.5 L 173 113.5 L 161 114.5 L 172 115.5 L 162.5 116 L 162.5 117 L 211 116.5 L 174 115.5 L 211 114.5 L 176 113.5 L 212 112.5 L 181 111.5 L 212 110.5 L 185 109.5 L 212 108.5 L 187 107.5 L 213 106.5 L 189.5 106 L 189.5 105 L 212.5 105 L 213 102 L 193 101.5 L 213 100.5 L 195 99.5 L 214 98.5 L 196 97.5 L 214 96.5 L 197 95.5 L 214 94.5 L 211 93.5 L 214 92.5 L 157.5 92 Z M 150.5 93 L 150.5 94 L 154 93.5 L 150.5 93 Z M 149.5 95 Q 146.3 96.2 147 100 L 153 99.5 L 150 98.5 L 154 97.5 L 150 96.5 L 154 95.5 L 149.5 95 Z M 275.5 98 L 275.5 99 L 278 98.5 L 275.5 98 Z M 214.5 99 L 214.5 100 L 218 99.5 L 214.5 99 Z M 154.5 100 L 154.5 101 L 157 100.5 L 154.5 100 Z M 274.5 100 L 274.5 101 L 277 100.5 L 274.5 100 Z M 93.5 101 L 93.5 102 L 96 101.5 L 93.5 101 Z M 213.5 101 L 213.5 102 L 216 101.5 L 213.5 101 Z M 34.5 102 L 34.5 103 L 37 102.5 L 34.5 102 Z M 163.5 118 L 163.5 119 L 210 118.5 L 163.5 118 Z M 103.5 119 L 103.5 120 L 150 119.5 L 103.5 119 Z M 223.5 119 L 223.5 120 L 270 119.5 L 223.5 119 Z M 43.5 120 L 43.5 121 L 90 120.5 L 43.5 120 Z M 163.5 120 L 163.5 121 L 210 120.5 L 163.5 120 Z M 103.5 121 L 103.5 122 L 138 122.5 L 104 123.5 L 138 124.5 L 105.5 125 L 105.5 126 L 149 125.5 L 139 124.5 L 149 123.5 L 139 122.5 L 150 121.5 L 103.5 121 Z M 223.5 121 L 223.5 122 L 270 121.5 L 223.5 121 Z M 44.5 122 L 44.5 123 L 90 122.5 L 44.5 122 Z M 164.5 122 L 164.5 123 L 198 123.5 L 164.5 124 L 164.5 125 L 209 124.5 L 199 123.5 L 209 122.5 L 164.5 122 Z M 44.5 124 L 44.5 125 L 89 124.5 L 44.5 124 Z" />
 <path fill="rgb(197,191,184)" stroke="rgb(197,191,184)" stroke-width="1" opacity="0.8" d="M 215.5 32 L 274 32.5 L 215.5 33 L 215.5 32 Z" />
 <path fill="rgb(197,191,184)" stroke="rgb(197,191,184)" stroke-width="1" opacity="0.8" d="M 155.5 33 L 214 33.5 L 155.5 34 L 155.5 33 Z" />
 <path fill="rgb(197,191,184)" stroke="rgb(197,191,184)" stroke-width="1" opacity="0.8" d="M 275.5 33 L 300 33.5 L 275.5 34 L 275.5 33 Z" />
 <path fill="rgb(197,191,184)" stroke="rgb(197,191,184)" stroke-width="1" opacity="0.8" d="M 215.5 34 L 274 34.5 L 215.5 35 L 215.5 34 Z" />
 <path fill="rgb(197,191,184)" stroke="rgb(197,191,184)" stroke-width="1" opacity="0.8" d="M 155.5 35 L 214 35.5 L 155.5 36 L 155.5 35 Z" />
 <path fill="rgb(197,191,184)" stroke="rgb(197,191,184)" stroke-width="1" opacity="0.8" d="M 275.5 35 L 300 35.5 L 275.5 36 L 275.5 35 Z" />
 <path fill="rgb(197,191,184)" stroke="rgb(197,191,184)" stroke-width="1" opacity="0.8" d="M 215.5 36 L 274 36.5 L 215.5 37 L 215.5 36 Z" />
 <path fill="rgb(197,191,184)" stroke="rgb(197,191,184)" stroke-width="1" opacity="0.8" d="M 86.5 37 L 89 38.5 L 87.5 39 L 86.5 37 Z" />
 <path fill="rgb(197,191,184)" stroke="rgb(197,191,184)" stroke-width="1" opacity="0.8" d="M 156.5 37 L 214 37.5 L 156.5 38 L 156.5 37 Z" />
 <path fill="rgb(197,191,184)" stroke="rgb(197,191,184)" stroke-width="1" opacity="0.8" d="M 279.5 37 L 300 37.5 L 279.5 38 L 279.5 37 Z" />
 <path fill="rgb(197,191,184)" stroke="rgb(197,191,184)" stroke-width="1" opacity="0.8" d="M 219.5 38 L 274 38.5 L 219.5 39 L 219.5 38 Z" />
 <path fill="rgb(197,191,184)" stroke="rgb(197,191,184)" stroke-width="1" opacity="0.8" d="M 159.5 39 L 214 39.5 L 159.5 40 L 159.5 39 Z" />
 <path fill="rgb(197,191,184)" stroke="rgb(197,191,184)" stroke-width="1" opacity="0.8" d="M 279.5 39 L 300 39.5 L 279.5 40 L 279.5 39 Z" />
 <path fill="rgb(197,191,184)" stroke="rgb(197,191,184)" stroke-width="1" opacity="0.8" d="M 216.5 40 L 274 40.5 L 216.5 41 L 216.5 40 Z" />
 <path fill="rgb(197,191,184)" stroke="rgb(197,191,184)" stroke-width="1" opacity="0.8" d="M 158.5 41 L 214 41.5 L 158.5 42 L 158.5 41 Z" />
 <path fill="rgb(197,191,184)" stroke="rgb(197,191,184)" stroke-width="1" opacity="0.8" d="M 278.5 41 L 300 41.5 L 278.5 42 L 278.5 41 Z" />
 <path fill="rgb(197,191,184)" stroke="rgb(197,191,184)" stroke-width="1" opacity="0.8" d="M 216.5 42 L 273 42.5 L 216.5 43 L 216.5 42 Z" />
 <path fill="rgb(197,191,184)" stroke="rgb(197,191,184)" stroke-width="1" opacity="0.8" d="M 157.5 43 L 213 43.5 L 157.5 44 L 157.5 43 Z" />
 <path fill="rgb(197,191,184)" stroke="rgb(197,191,184)" stroke-width="1" opacity="0.8" d="M 277.5 43 L 300 43.5 L 277.5 44 L 277.5 43 Z" />
 <path fill="rgb(197,191,184)" stroke="rgb(197,191,184)" stroke-width="1" opacity="0.8" d="M 217.5 44 L 273 44.5 L 217.5 45 L 217.5 44 Z" />
 <path fill="rgb(197,191,184)" stroke="rgb(197,191,184)" stroke-width="1" opacity="0.8" d="M 157.5 45 L 212 45.5 L 157.5 46 L 157.5 45 Z" />
 <path fill="rgb(197,191,184)" stroke="rgb(197,191,184)" stroke-width="1" opacity="0.8" d="M 277.5 45 L 300 45.5 L 277.5 46 L 277.5 45 Z" />
 <path fill="rgb(197,191,184)" stroke="rgb(197,191,184)" stroke-width="1" opacity="0.8" d="M 216.5 46 L 272 46.5 L 216.5 47 L 216.5 46 Z" />
 <path fill="rgb(197,191,184)" stroke="rgb(197,191,184)" stroke-width="1" opacity="0.8" d="M 156.5 47 L 212 47.5 L 156.5 48 L 156.5 47 Z" />
 <path fill="rgb(197,191,184)" stroke="rgb(197,191,184)" stroke-width="1" opacity="0.8" d="M 276.5 47 L 300 47.5 L 276.5 48 L 276.5 47 Z" />
 <path fill="rgb(197,191,184)" stroke="rgb(197,191,184)" stroke-width="1" opacity="0.8" d="M 216.5 48 L 273 48.5 L 216.5 49 L 216.5 48 Z" />
 <path fill="rgb(197,191,184)" stroke="rgb(197,191,184)" stroke-width="1" opacity="0.8" d="M 156.5 49 L 213 49.5 L 156.5 50 L 156.5 49 Z" />
 <path fill="rgb(197,191,184)" stroke="rgb(197,191,184)" stroke-width="1" opacity="0.8" d="M 276.5 49 L 300 49.5 L 276.5 50 L 276.5 49 Z" />
 <path fill="rgb(197,191,184)" stroke="rgb(197,191,184)" stroke-width="1" opacity="0.8" d="M 216.5 50 L 273 50.5 L 216.5 51 L 216.5 50 Z" />
 <path fill="rgb(197,191,184)" stroke="rgb(197,191,184)" stroke-width="1" opacity="0.8" d="M 157.5 51 L 213 51.5 L 157.5 52 L 157.5 51 Z" />
 <path fill="rgb(197,191,184)" stroke="rgb(197,191,184)" stroke-width="1" opacity="0.8" d="M 277.5 51 L 300 51.5 L 277.5 52 L 277.5 51 Z" />
 <path fill="rgb(197,191,184)" stroke="rgb(197,191,184)" stroke-width="1" opacity="0.8" d="M 216.5 52 L 273 52.5 L 216.5 53 L 216.5 52 Z" />
 <path fill="rgb(197,191,184)" stroke="rgb(197,191,184)" stroke-width="1" opacity="0.8" d="M 156.5 53 L 213 53.5 L 156.5 54 L 156.5 53 Z" />
 <path fill="rgb(197,191,184)" stroke="rgb(197,191,184)" stroke-width="1" opacity="0.8" d="M 277.5 53 L 300 53.5 L 277.5 54 L 277.5 53 Z" />
 <path fill="rgb(197,191,184)" stroke="rgb(197,191,184)" stroke-width="1" opacity="0.8" d="M 217.5 54 L 274 54.5 L 217.5 55 L 217.5 54 Z" />
 <path fill="rgb(197,191,184)" stroke="rgb(197,191,184)" stroke-width="1" opacity="0.8" d="M 157.5 55 L 214 55.5 L 157.5 56 L 157.5 55 Z" />
 <path fill="rgb(197,191,184)" stroke="rgb(197,191,184)" stroke-width="1" opacity="0.8" d="M 277.5 55 L 300 55.5 L 277.5 56 L 277.5 55 Z" />
 <path fill="rgb(197,191,184)" stroke="rgb(197,191,184)" stroke-width="1" opacity="0.8" d="M 217.5 56 L 274 56.5 L 217.5 57 L 217.5 56 Z" />
 <path fill="rgb(197,191,184)" stroke="rgb(197,191,184)" stroke-width="1" opacity="0.8" d="M 157.5 57 L 214 57.5 L 157.5 58 L 157.5 57 Z" />
 <path fill="rgb(197,191,184)" stroke="rgb(197,191,184)" stroke-width="1" opacity="0.8" d="M 277.5 57 L 300 57.5 L 277.5 58 L 277.5 57 Z" />
 <path fill="rgb(197,191,184)" stroke="rgb(197,191,184)" stroke-width="1" opacity="0.8" d="M 217.5 58 L 274 58.5 L 217.5 59 L 217.5 58 Z" />
 <path fill="rgb(197,191,184)" stroke="rgb(197,191,184)" stroke-width="1" opacity="0.8" d="M 158.5 59 L 213 59.5 L 158.5 60 L 158.5 59 Z" />
 <path fill="rgb(197,191,184)" stroke="rgb(197,191,184)" stroke-width="1" opacity="0.8" d="M 278.5 59 L 300 59.5 L 278.5 60 L 278.5 59 Z" />
 <path fill="rgb(197,191,184)" stroke="rgb(197,191,184)" stroke-width="1" opacity="0.8" d="M 217.5 60 L 273 60.5 L 217.5 61 L 217.5 60 Z" />
 <path fill="rgb(197,191,184)" stroke="rgb(197,191,184)" stroke-width="1" opacity="0.8" d="M 157.5 61 L 213 61.5 L 157.5 62 L 157.5 61 Z" />
 <path fill="rgb(197,191,184)" stroke="rgb(197,191,184)" stroke-width="1" opacity="0.8" d="M 277.5 61 L 300 61.5 L 277.5 62 L 277.5 61 Z" />
 <path fill="rgb(197,191,184)" stroke="rgb(197,191,184)" stroke-width="1" opacity="0.8" d="M 217.5 62 L 273 62.5 L 217.5 63 L 217.5 62 Z" />
 <path fill="rgb(197,191,184)" stroke="rgb(197,191,184)" stroke-width="1" opacity="0.8" d="M 157.5 63 L 213 63.5 L 157.5 64 L 157.5 63 Z" />
 <path fill="rgb(197,191,184)" stroke="rgb(197,191,184)" stroke-width="1" opacity="0.8" d="M 277.5 63 L 300 63.5 L 277.5 64 L 277.5 63 Z" />
 <path fill="rgb(197,191,184)" stroke="rgb(197,191,184)" stroke-width="1" opacity="0.8" d="M 217.5 64 L 272 64.5 L 217.5 65 L 217.5 64 Z" />
 <path fill="rgb(197,191,184)" stroke="rgb(197,191,184)" stroke-width="1" opacity="0.8" d="M 157.5 65 L 160 65.5 L 157.5 66 L 157.5 65 Z" />
 <path fill="rgb(197,191,184)" stroke="rgb(197,191,184)" stroke-width="1" opacity="0.8" d="M 161.5 65 L 212 65.5 L 161.5 66 L 161.5 65 Z" />
 <path fill="rgb(197,191,184)" stroke="rgb(197,191,184)" stroke-width="1" opacity="0.8" d="M 277.5 65 L 300 65.5 L 277.5 66 L 277.5 65 Z" />
 <path fill="rgb(197,191,184)" stroke="rgb(197,191,184)" stroke-width="1" opacity="0.8" d="M 219.5 66 L 270 66.5 L 219.5 67 L 219.5 66 Z" />
 <path fill="rgb(197,191,184)" stroke="rgb(197,191,184)" stroke-width="1" opacity="0.8" d="M 159.5 67 L 210 67.5 L 159.5 68 L 159.5 67 Z" />
 <path fill="rgb(197,191,184)" stroke="rgb(197,191,184)" stroke-width="1" opacity="0.8" d="M 277.5 67 L 300 67.5 L 277.5 68 L 277.5 67 Z" />
 <path fill="rgb(197,191,184)" stroke="rgb(197,191,184)" stroke-width="1" opacity="0.8" d="M 217.5 68 L 270 68.5 L 217.5 69 L 217.5 68 Z" />
 <path fill="rgb(197,191,184)" stroke="rgb(197,191,184)" stroke-width="1" opacity="0.8" d="M 157.5 69 L 210 69.5 L 157.5 70 L 157.5 69 Z" />
 <path fill="rgb(197,191,184)" stroke="rgb(197,191,184)" stroke-width="1" opacity="0.8" d="M 211.5 69 L 214 69.5 L 211.5 70 L 211.5 69 Z" />
 <path fill="rgb(197,191,184)" stroke="rgb(197,191,184)" stroke-width="1" opacity="0.8" d="M 277.5 69 L 300 69.5 L 277.5 70 L 277.5 69 Z" />
 <path fill="rgb(197,191,184)" stroke="rgb(197,191,184)" stroke-width="1" opacity="0.8" d="M 151.5 70 L 154 70.5 L 151.5 71 L 151.5 70 Z" />
 <path fill="rgb(197,191,184)" stroke="rgb(197,191,184)" stroke-width="1" opacity="0.8" d="M 216.5 70 L 270 70.5 L 216.5 71 L 216.5 70 Z" />
 <path fill="rgb(197,191,184)" stroke="rgb(197,191,184)" stroke-width="1" opacity="0.8" d="M 271.5 70 L 274 70.5 L 271.5 71 L 271.5 70 Z" />
 <path fill="rgb(197,191,184)" stroke="rgb(197,191,184)" stroke-width="1" opacity="0.8" d="M 30.5 71 L 33 71.5 L 30.5 72 L 30.5 71 Z" />
 <path fill="rgb(197,191,184)" stroke="rgb(197,191,184)" stroke-width="1" opacity="0.8" d="M 156.5 71 L 210 71.5 L 156.5 72 L 156.5 71 Z" />
 <path fill="rgb(197,191,184)" stroke="rgb(197,191,184)" stroke-width="1" opacity="0.8" d="M 211.5 71 L 214 71.5 L 211.5 72 L 211.5 71 Z" />
 <path fill="rgb(197,191,184)" stroke="rgb(197,191,184)" stroke-width="1" opacity="0.8" d="M 276.5 71 L 300 71.5 L 276.5 72 L 276.5 71 Z" />
 <path fill="rgb(197,191,184)" stroke="rgb(197,191,184)" stroke-width="1" opacity="0.8" d="M 216.5 72 L 274 72.5 L 216.5 73 L 216.5 72 Z" />
 <path fill="rgb(197,191,184)" stroke="rgb(197,191,184)" stroke-width="1" opacity="0.8" d="M 156.5 73 L 214 73.5 L 156.5 74 L 156.5 73 Z" />
 <path fill="rgb(197,191,184)" stroke="rgb(197,191,184)" stroke-width="1" opacity="0.8" d="M 276.5 73 L 300 73.5 L 276.5 74 L 276.5 73 Z" />
 <path fill="rgb(197,191,184)" stroke="rgb(197,191,184)" stroke-width="1" opacity="0.8" d="M 216.5 74 L 275 74.5 L 216.5 75 L 216.5 74 Z" />
 <path fill="rgb(197,191,184)" stroke="rgb(197,191,184)" stroke-width="1" opacity="0.8" d="M 276.5 75 L 300 75.5 L 276.5 76 L 276.5 75 Z" />
 <path fill="rgb(197,191,184)" stroke="rgb(197,191,184)" stroke-width="1" opacity="0.8" d="M 297.5 81 L 300 81.5 L 297.5 82 L 297.5 81 Z" />
 <path fill="rgb(197,191,184)" stroke="rgb(197,191,184)" stroke-width="1" opacity="0.8" d="M 281.5 91 L 300 91.5 L 281.5 92 L 281.5 91 Z" />
 <path fill="rgb(197,191,184)" stroke="rgb(197,191,184)" stroke-width="1" opacity="0.8" d="M 279.5 93 L 300 93.5 L 279.5 94 L 279.5 93 Z" />
 <path fill="rgb(197,191,184)" stroke="rgb(197,191,184)" stroke-width="1" opacity="0.8" d="M 13.5 102 L 32 102.5 L 13.5 103 L 13.5 102 Z" />
 <path fill="rgb(197,191,184)" stroke="rgb(197,191,184)" stroke-width="1" opacity="0.8" d="M 132.5 102 L 152 102.5 L 132.5 103 L 132.5 102 Z" />
 <path fill="rgb(197,191,184)" stroke="rgb(197,191,184)" stroke-width="1" opacity="0.8" d="M 252.5 102 L 272 102.5 L 252.5 103 L 252.5 102 Z" />
 <path fill="rgb(197,191,184)" stroke="rgb(197,191,184)" stroke-width="1" opacity="0.8" d="M 72.5 103 L 92 103.5 L 72.5 104 L 72.5 103 Z" />
 <path fill="rgb(197,191,184)" stroke="rgb(197,191,184)" stroke-width="1" opacity="0.8" d="M 191.5 103 L 212 103.5 L 191.5 104 L 191.5 103 Z" />
 <path fill="rgb(197,191,184)" stroke="rgb(197,191,184)" stroke-width="1" opacity="0.8" d="M 11.5 104 L 31 104.5 L 11.5 105 L 11.5 104 Z" />
 <path fill="rgb(197,191,184)" stroke="rgb(197,191,184)" stroke-width="1" opacity="0.8" d="M 131.5 104 L 151 104.5 L 131.5 105 L 131.5 104 Z" />
 <path fill="rgb(197,191,184)" stroke="rgb(197,191,184)" stroke-width="1" opacity="0.8" d="M 296.5 113 L 300 113.5 L 296.5 114 L 296.5 113 Z" />
 <path fill="rgb(197,191,184)" stroke="rgb(197,191,184)" stroke-width="1" opacity="0.8" d="M 294.5 115 L 300 115.5 L 294.5 116 L 294.5 115 Z" />
 <path fill="rgb(197,191,184)" stroke="rgb(197,191,184)" stroke-width="1" opacity="0.8" d="M 0.5 124 L 18 124.5 L 0.5 125 L 0.5 124 Z" />
 <path fill="rgb(197,191,184)" stroke="rgb(197,191,184)" stroke-width="1" opacity="0.8" d="M 0.5 128 L 17 128.5 L 0.5 129 L 0.5 128 Z" />
 <path fill="rgb(197,191,184)" stroke="rgb(197,191,184)" stroke-width="1" opacity="0.8" d="M 0.5 130 L 17 130.5 L 0.5 131 L 0.5 130 Z" />
 <path fill="rgb(197,191,184)" stroke="rgb(197,191,184)" stroke-width="1" opacity="0.8" d="M 0.5 132 L 17 132.5 L 0.5 133 L 0.5 132 Z" />
 <path fill="rgb(197,191,184)" stroke="rgb(197,191,184)" stroke-width="1" opacity="0.8" d="M 0.5 134 L 12 134.5 L 0.5 135 L 0.5 134 Z" />
 <path fill="rgb(197,191,184)" stroke="rgb(197,191,184)" stroke-width="1" opacity="0.8" d="M 0.5 136 L 4 136.5 L 0.5 137 L 0.5 136 Z" />
 <path fill="rgb(197,191,184)" stroke="rgb(197,191,184)" stroke-width="1" opacity="0.8" d="M 11.5 136 L 14 136.5 L 11.5 137 L 11.5 136 Z" />
 <path fill="rgb(197,191,184)" stroke="rgb(197,191,184)" stroke-width="1" opacity="0.8" d="M 0.5 138 L 4 138.5 L 0.5 139 L 0.5 138 Z" />
 <path fill="rgb(197,191,184)" stroke="rgb(197,191,184)" stroke-width="1" opacity="0.8" d="M 0.5 140 L 3 140.5 L 0.5 141 L 0.5 140 Z" />
 <path fill="rgb(197,191,184)" stroke="rgb(197,191,184)" stroke-width="1" opacity="0.8" d="M 0.5 142 L 3 142.5 L 0.5 143 L 0.5 142 Z" />
 <path fill="rgb(197,191,184)" stroke="rgb(197,191,184)" stroke-width="1" opacity="0.8" d="M 198.5 143 L 206 143.5 L 198.5 144 L 198.5 143 Z" />
 <path fill="rgb(197,191,184)" stroke="rgb(197,191,184)" stroke-width="1" opacity="0.8" d="M 0.5 144 L 3 144.5 L 0.5 145 L 0.5 144 Z" />
 <path fill="rgb(197,191,184)" stroke="rgb(197,191,184)" stroke-width="1" opacity="0.8" d="M 18.5 144 L 25 144.5 L 18.5 145 L 18.5 144 Z" />
 <path fill="rgb(197,191,184)" stroke="rgb(197,191,184)" stroke-width="1" opacity="0.8" d="M 138.5 144 L 144 144.5 L 138.5 145 L 138.5 144 Z" />
 <path fill="rgb(197,191,184)" stroke="rgb(197,191,184)" stroke-width="1" opacity="0.8" d="M 210.5 144 L 243 144.5 L 210.5 145 L 210.5 144 Z" />
 <path fill="rgb(197,191,184)" stroke="rgb(197,191,184)" stroke-width="1" opacity="0.8" d="M 258.5 144 L 264 144.5 L 258.5 145 L 258.5 144 Z" />
 <path fill="rgb(197,191,184)" stroke="rgb(197,191,184)" stroke-width="1" opacity="0.8" d="M 30.5 145 L 63 145.5 L 30.5 146 L 30.5 145 Z" />
 <path fill="rgb(197,191,184)" stroke="rgb(197,191,184)" stroke-width="1" opacity="0.8" d="M 78.5 145 L 83 145.5 L 78.5 146 L 78.5 145 Z" />
 <path fill="rgb(197,191,184)" stroke="rgb(197,191,184)" stroke-width="1" opacity="0.8" d="M 150.5 145 L 183 145.5 L 150.5 146 L 150.5 145 Z" />
 <path fill="rgb(197,191,184)" stroke="rgb(197,191,184)" stroke-width="1" opacity="0.8" d="M 198.5 145 L 202 145.5 L 198.5 146 L 198.5 145 Z" />
 <path fill="rgb(197,191,184)" stroke="rgb(197,191,184)" stroke-width="1" opacity="0.8" d="M 271.5 145 L 300 145.5 L 271.5 146 L 271.5 145 Z" />
 <path fill="rgb(197,191,184)" stroke="rgb(197,191,184)" stroke-width="1" opacity="0.8" d="M 91.5 146 L 122 146.5 L 91.5 147 L 91.5 146 Z" />
 <path fill="rgb(197,191,184)" stroke="rgb(197,191,184)" stroke-width="1" opacity="0.8" d="M 207.5 146 L 210 146.5 L 207.5 147 L 207.5 146 Z" />
 <path fill="rgb(197,191,184)" stroke="rgb(197,191,184)" stroke-width="1" opacity="0.8" d="M 212.5 146 L 242 146.5 L 212.5 147 L 212.5 146 Z" />
 <path fill="rgb(197,191,184)" stroke="rgb(197,191,184)" stroke-width="1" opacity="0.8" d="M 27.5 147 L 30 147.5 L 27.5 148 L 27.5 147 Z" />
 <path fill="rgb(197,191,184)" stroke="rgb(197,191,184)" stroke-width="1" opacity="0.8" d="M 32.5 147 L 62 147.5 L 32.5 148 L 32.5 147 Z" />
 <path fill="rgb(197,191,184)" stroke="rgb(197,191,184)" stroke-width="1" opacity="0.8" d="M 153.5 147 L 182 147.5 L 153.5 148 L 153.5 147 Z" />
 <path fill="rgb(197,191,184)" stroke="rgb(197,191,184)" stroke-width="1" opacity="0.8" d="M 268.5 147 L 271 147.5 L 268.5 148 L 268.5 147 Z" />
 <path fill="rgb(197,191,184)" stroke="rgb(197,191,184)" stroke-width="1" opacity="0.8" d="M 274.5 147 L 300 147.5 L 274.5 148 L 274.5 147 Z" />
 <path fill="rgb(197,191,184)" stroke="rgb(197,191,184)" stroke-width="1" opacity="0.8" d="M 88.5 148 L 92 148.5 L 88.5 149 L 88.5 148 Z" />
 <path fill="rgb(197,191,184)" stroke="rgb(197,191,184)" stroke-width="1" opacity="0.8" d="M 94.5 148 L 122 148.5 L 94.5 149 L 94.5 148 Z" />
 <path fill="rgb(197,191,184)" stroke="rgb(197,191,184)" stroke-width="1" opacity="0.8" d="M 208.5 148 L 212 148.5 L 208.5 149 L 208.5 148 Z" />
 <path fill="rgb(197,191,184)" stroke="rgb(197,191,184)" stroke-width="1" opacity="0.8" d="M 215.5 148 L 242 148.5 L 215.5 149 L 215.5 148 Z" />
 <path fill="rgb(197,191,184)" stroke="rgb(197,191,184)" stroke-width="1" opacity="0.8" d="M 29.5 149 L 33 149.5 L 29.5 150 L 29.5 149 Z" />
 <path fill="rgb(197,191,184)" stroke="rgb(197,191,184)" stroke-width="1" opacity="0.8" d="M 36.5 149 L 62 149.5 L 36.5 150 L 36.5 149 Z" />
 <path fill="rgb(197,191,184)" stroke="rgb(197,191,184)" stroke-width="1" opacity="0.8" d="M 149.5 149 L 153 149.5 L 149.5 150 L 149.5 149 Z" />
 <path fill="rgb(197,191,184)" stroke="rgb(197,191,184)" stroke-width="1" opacity="0.8" d="M 156.5 149 L 181 149.5 L 156.5 150 L 156.5 149 Z" />
 <path fill="rgb(197,191,184)" stroke="rgb(197,191,184)" stroke-width="1" opacity="0.8" d="M 269.5 149 L 273 149.5 L 269.5 150 L 269.5 149 Z" />
 <path fill="rgb(197,191,184)" stroke="rgb(197,191,184)" stroke-width="1" opacity="0.8" d="M 277.5 149 L 300 149.5 L 277.5 150 L 277.5 149 Z" />
 <path fill="rgb(197,191,184)" stroke="rgb(197,191,184)" stroke-width="1" opacity="0.8" d="M 89.5 150 L 94 150.5 L 89.5 151 L 89.5 150 Z" />
 <path fill="rgb(197,191,184)" stroke="rgb(197,191,184)" stroke-width="1" opacity="0.8" d="M 97.5 150 L 120 150.5 L 97.5 151 L 97.5 150 Z" />
 <path fill="rgb(197,191,184)" stroke="rgb(197,191,184)" stroke-width="1" opacity="0.8" d="M 209.5 150 L 214 150.5 L 209.5 151 L 209.5 150 Z" />
 <path fill="rgb(197,191,184)" stroke="rgb(197,191,184)" stroke-width="1" opacity="0.8" d="M 218.5 150 L 240 150.5 L 218.5 151 L 218.5 150 Z" />
 <path fill="rgb(197,191,184)" stroke="rgb(197,191,184)" stroke-width="1" opacity="0.8" d="M 30.5 151 L 35 151.5 L 30.5 152 L 30.5 151 Z" />
 <path fill="rgb(197,191,184)" stroke="rgb(197,191,184)" stroke-width="1" opacity="0.8" d="M 38.5 151 L 59 151.5 L 38.5 152 L 38.5 151 Z" />
 <path fill="rgb(197,191,184)" stroke="rgb(197,191,184)" stroke-width="1" opacity="0.8" d="M 150.5 151 L 155 151.5 L 150.5 152 L 150.5 151 Z" />
 <path fill="rgb(197,191,184)" stroke="rgb(197,191,184)" stroke-width="1" opacity="0.8" d="M 159.5 151 L 179 151.5 L 159.5 152 L 159.5 151 Z" />
 <path fill="rgb(197,191,184)" stroke="rgb(197,191,184)" stroke-width="1" opacity="0.8" d="M 270.5 151 L 275 151.5 L 270.5 152 L 270.5 151 Z" />
 <path fill="rgb(197,191,184)" stroke="rgb(197,191,184)" stroke-width="1" opacity="0.8" d="M 279.5 151 L 298 151.5 L 279.5 152 L 279.5 151 Z" />
 <path fill="rgb(197,191,184)" stroke="rgb(197,191,184)" stroke-width="1" opacity="0.8" d="M 90.5 152 L 96 152.5 L 90.5 153 L 90.5 152 Z" />
 <path fill="rgb(197,191,184)" stroke="rgb(197,191,184)" stroke-width="1" opacity="0.8" d="M 99.5 152 L 117 152.5 L 99.5 153 L 99.5 152 Z" />
 <path fill="rgb(197,191,184)" stroke="rgb(197,191,184)" stroke-width="1" opacity="0.8" d="M 211.5 152 L 216 152.5 L 211.5 153 L 211.5 152 Z" />
 <path fill="rgb(197,191,184)" stroke="rgb(197,191,184)" stroke-width="1" opacity="0.8" d="M 220.5 152 L 236 152.5 L 220.5 153 L 220.5 152 Z" />
 <path fill="rgb(197,191,184)" stroke="rgb(197,191,184)" stroke-width="1" opacity="0.8" d="M 31.5 153 L 36 153.5 L 31.5 154 L 31.5 153 Z" />
 <path fill="rgb(197,191,184)" stroke="rgb(197,191,184)" stroke-width="1" opacity="0.8" d="M 40.5 153 L 55 153.5 L 40.5 154 L 40.5 153 Z" />
 <path fill="rgb(197,191,184)" stroke="rgb(197,191,184)" stroke-width="1" opacity="0.8" d="M 151.5 153 L 156 153.5 L 151.5 154 L 151.5 153 Z" />
 <path fill="rgb(197,191,184)" stroke="rgb(197,191,184)" stroke-width="1" opacity="0.8" d="M 161.5 153 L 175 153.5 L 161.5 154 L 161.5 153 Z" />
 <path fill="rgb(197,191,184)" stroke="rgb(197,191,184)" stroke-width="1" opacity="0.8" d="M 272.5 153 L 277 153.5 L 272.5 154 L 272.5 153 Z" />
 <path fill="rgb(197,191,184)" stroke="rgb(197,191,184)" stroke-width="1" opacity="0.8" d="M 281.5 153 L 294 153.5 L 281.5 154 L 281.5 153 Z" />
 <path fill="rgb(197,191,184)" stroke="rgb(197,191,184)" stroke-width="1" opacity="0.8" d="M 92.5 154 L 97 154.5 L 92.5 155 L 92.5 154 Z" />
 <path fill="rgb(197,191,184)" stroke="rgb(197,191,184)" stroke-width="1" opacity="0.8" d="M 101.5 154 L 114 154.5 L 101.5 155 L 101.5 154 Z" />
 <path fill="rgb(197,191,184)" stroke="rgb(197,191,184)" stroke-width="1" opacity="0.8" d="M 212.5 154 L 217 154.5 L 212.5 155 L 212.5 154 Z" />
 <path fill="rgb(197,191,184)" stroke="rgb(197,191,184)" stroke-width="1" opacity="0.8" d="M 221.5 154 L 234 154.5 L 221.5 155 L 221.5 154 Z" />
 <path fill="rgb(197,191,184)" stroke="rgb(197,191,184)" stroke-width="1" opacity="0.8" d="M 32.5 155 L 37 155.5 L 32.5 156 L 32.5 155 Z" />
 <path fill="rgb(197,191,184)" stroke="rgb(197,191,184)" stroke-width="1" opacity="0.8" d="M 42.5 155 L 53 155.5 L 42.5 156 L 42.5 155 Z" />
 <path fill="rgb(197,191,184)" stroke="rgb(197,191,184)" stroke-width="1" opacity="0.8" d="M 153.5 155 L 157 155.5 L 153.5 156 L 153.5 155 Z" />
 <path fill="rgb(197,191,184)" stroke="rgb(197,191,184)" stroke-width="1" opacity="0.8" d="M 162.5 155 L 173 155.5 L 162.5 156 L 162.5 155 Z" />
 <path fill="rgb(197,191,184)" stroke="rgb(197,191,184)" stroke-width="1" opacity="0.8" d="M 273.5 155 L 277 155.5 L 273.5 156 L 273.5 155 Z" />
 <path fill="rgb(197,191,184)" stroke="rgb(197,191,184)" stroke-width="1" opacity="0.8" d="M 282.5 155 L 292 155.5 L 282.5 156 L 282.5 155 Z" />
 <path fill="rgb(197,191,184)" stroke="rgb(197,191,184)" stroke-width="1" opacity="0.8" d="M 93.5 156 L 97 156.5 L 93.5 157 L 93.5 156 Z" />
 <path fill="rgb(197,191,184)" stroke="rgb(197,191,184)" stroke-width="1" opacity="0.8" d="M 102.5 156 L 112 156.5 L 102.5 157 L 102.5 156 Z" />
 <path fill="rgb(197,191,184)" stroke="rgb(197,191,184)" stroke-width="1" opacity="0.8" d="M 213.5 156 L 218 156.5 L 213.5 157 L 213.5 156 Z" />
 <path fill="rgb(197,191,184)" stroke="rgb(197,191,184)" stroke-width="1" opacity="0.8" d="M 222.5 156 L 231 156.5 L 222.5 157 L 222.5 156 Z" />
 <path fill="rgb(197,191,184)" stroke="rgb(197,191,184)" stroke-width="1" opacity="0.8" d="M 33.5 157 L 38 157.5 L 33.5 158 L 33.5 157 Z" />
 <path fill="rgb(197,191,184)" stroke="rgb(197,191,184)" stroke-width="1" opacity="0.8" d="M 42.5 157 L 51 157.5 L 42.5 158 L 42.5 157 Z" />
 <path fill="rgb(197,191,184)" stroke="rgb(197,191,184)" stroke-width="1" opacity="0.8" d="M 154.5 157 L 158 157.5 L 154.5 158 L 154.5 157 Z" />
 <path fill="rgb(197,191,184)" stroke="rgb(197,191,184)" stroke-width="1" opacity="0.8" d="M 162.5 157 L 171 157.5 L 162.5 158 L 162.5 157 Z" />
 <path fill="rgb(197,191,184)" stroke="rgb(197,191,184)" stroke-width="1" opacity="0.8" d="M 274.5 157 L 278 157.5 L 274.5 158 L 274.5 157 Z" />
 <path fill="rgb(197,191,184)" stroke="rgb(197,191,184)" stroke-width="1" opacity="0.8" d="M 282.5 157 L 290 157.5 L 282.5 158 L 282.5 157 Z" />
 <path fill="rgb(197,191,184)" stroke="rgb(197,191,184)" stroke-width="1" opacity="0.8" d="M 94.5 158 L 98 158.5 L 94.5 159 L 94.5 158 Z" />
 <path fill="rgb(197,191,184)" stroke="rgb(197,191,184)" stroke-width="1" opacity="0.8" d="M 102.5 158 L 110 158.5 L 102.5 159 L 102.5 158 Z" />
 <path fill="rgb(197,191,184)" stroke="rgb(197,191,184)" stroke-width="1" opacity="0.8" d="M 214.5 158 L 218 158.5 L 214.5 159 L 214.5 158 Z" />
 <path fill="rgb(197,191,184)" stroke="rgb(197,191,184)" stroke-width="1" opacity="0.8" d="M 222.5 158 L 230 158.5 L 222.5 159 L 222.5 158 Z" />
 <path fill="rgb(197,191,184)" stroke="rgb(197,191,184)" stroke-width="1" opacity="0.8" d="M 34.5 159 L 38 159.5 L 34.5 160 L 34.5 159 Z" />
 <path fill="rgb(197,191,184)" stroke="rgb(197,191,184)" stroke-width="1" opacity="0.8" d="M 42.5 159 L 49 159.5 L 42.5 160 L 42.5 159 Z" />
 <path fill="rgb(197,191,184)" stroke="rgb(197,191,184)" stroke-width="1" opacity="0.8" d="M 155.5 159 L 158 159.5 L 155.5 160 L 155.5 159 Z" />
 <path fill="rgb(197,191,184)" stroke="rgb(197,191,184)" stroke-width="1" opacity="0.8" d="M 162.5 159 L 169 159.5 L 162.5 160 L 162.5 159 Z" />
 <path fill="rgb(197,191,184)" stroke="rgb(197,191,184)" stroke-width="1" opacity="0.8" d="M 275.5 159 L 279 159.5 L 275.5 160 L 275.5 159 Z" />
 <path fill="rgb(197,191,184)" stroke="rgb(197,191,184)" stroke-width="1" opacity="0.8" d="M 282.5 159 L 289 159.5 L 282.5 160 L 282.5 159 Z" />
 <path fill="rgb(197,191,184)" stroke="rgb(197,191,184)" stroke-width="1" opacity="0.8" d="M 95.5 160 L 99 160.5 L 95.5 161 L 95.5 160 Z" />
 <path fill="rgb(197,191,184)" stroke="rgb(197,191,184)" stroke-width="1" opacity="0.8" d="M 102.5 160 L 109 160.5 L 102.5 161 L 102.5 160 Z" />
 <path fill="rgb(197,191,184)" stroke="rgb(197,191,184)" stroke-width="1" opacity="0.8" d="M 215.5 160 L 219 160.5 L 215.5 161 L 215.5 160 Z" />
 <path fill="rgb(197,191,184)" stroke="rgb(197,191,184)" stroke-width="1" opacity="0.8" d="M 222.5 160 L 229 160.5 L 222.5 161 L 222.5 160 Z" />
 <path fill="rgb(197,191,184)" stroke="rgb(197,191,184)" stroke-width="1" opacity="0.8" d="M 35.5 161 L 39 161.5 L 35.5 162 L 35.5 161 Z" />
 <path fill="rgb(197,191,184)" stroke="rgb(197,191,184)" stroke-width="1" opacity="0.8" d="M 42.5 161 L 48 161.5 L 42.5 162 L 42.5 161 Z" />
 <path fill="rgb(197,191,184)" stroke="rgb(197,191,184)" stroke-width="1" opacity="0.8" d="M 155.5 161 L 159 161.5 L 155.5 162 L 155.5 161 Z" />
 <path fill="rgb(197,191,184)" stroke="rgb(197,191,184)" stroke-width="1" opacity="0.8" d="M 162.5 161 L 168 161.5 L 162.5 162 L 162.5 161 Z" />
 <path fill="rgb(197,191,184)" stroke="rgb(197,191,184)" stroke-width="1" opacity="0.8" d="M 275.5 161 L 279 161.5 L 275.5 162 L 275.5 161 Z" />
 <path fill="rgb(197,191,184)" stroke="rgb(197,191,184)" stroke-width="1" opacity="0.8" d="M 282.5 161 L 288 161.5 L 282.5 162 L 282.5 161 Z" />
 <path fill="rgb(197,191,184)" stroke="rgb(197,191,184)" stroke-width="1" opacity="0.8" d="M 95.5 162 L 99 162.5 L 95.5 163 L 95.5 162 Z" />
 <path fill="rgb(197,191,184)" stroke="rgb(197,191,184)" stroke-width="1" opacity="0.8" d="M 102.5 162 L 108 162.5 L 102.5 163 L 102.5 162 Z" />
 <path fill="rgb(197,191,184)" stroke="rgb(197,191,184)" stroke-width="1" opacity="0.8" d="M 215.5 162 L 219 162.5 L 215.5 163 L 215.5 162 Z" />
 <path fill="rgb(197,191,184)" stroke="rgb(197,191,184)" stroke-width="1" opacity="0.8" d="M 222.5 162 L 227 162.5 L 222.5 163 L 222.5 162 Z" />
 <path fill="rgb(197,191,184)" stroke="rgb(197,191,184)" stroke-width="1" opacity="0.8" d="M 35.5 163 L 39 163.5 L 35.5 164 L 35.5 163 Z" />
 <path fill="rgb(197,191,184)" stroke="rgb(197,191,184)" stroke-width="1" opacity="0.8" d="M 42.5 163 L 47 163.5 L 42.5 164 L 42.5 163 Z" />
 <path fill="rgb(197,191,184)" stroke="rgb(197,191,184)" stroke-width="1" opacity="0.8" d="M 155.5 163 L 160 163.5 L 155.5 164 L 155.5 163 Z" />
 <path fill="rgb(197,191,184)" stroke="rgb(197,191,184)" stroke-width="1" opacity="0.8" d="M 162.5 163 L 167 163.5 L 162.5 164 L 162.5 163 Z" />
 <path fill="rgb(197,191,184)" stroke="rgb(197,191,184)" stroke-width="1" opacity="0.8" d="M 275.5 163 L 280 163.5 L 275.5 164 L 275.5 163 Z" />
 <path fill="rgb(197,191,184)" stroke="rgb(197,191,184)" stroke-width="1" opacity="0.8" d="M 282.5 163 L 287 163.5 L 282.5 164 L 282.5 163 Z" />
 <path fill="rgb(197,191,184)" stroke="rgb(197,191,184)" stroke-width="1" opacity="0.8" d="M 95.5 164 L 100 164.5 L 95.5 165 L 95.5 164 Z" />
 <path fill="rgb(197,191,184)" stroke="rgb(197,191,184)" stroke-width="1" opacity="0.8" d="M 102.5 164 L 106 164.5 L 102.5 165 L 102.5 164 Z" />
 <path fill="rgb(197,191,184)" stroke="rgb(197,191,184)" stroke-width="1" opacity="0.8" d="M 215.5 164 L 220 164.5 L 215.5 165 L 215.5 164 Z" />
 <path fill="rgb(197,191,184)" stroke="rgb(197,191,184)" stroke-width="1" opacity="0.8" d="M 222.5 164 L 226 164.5 L 222.5 165 L 222.5 164 Z" />
 <path fill="rgb(197,191,184)" stroke="rgb(197,191,184)" stroke-width="1" opacity="0.8" d="M 34.5 165 L 40 165.5 L 34.5 166 L 34.5 165 Z" />
 <path fill="rgb(197,191,184)" stroke="rgb(197,191,184)" stroke-width="1" opacity="0.8" d="M 42.5 165 L 46 165.5 L 42.5 166 L 42.5 165 Z" />
 <path fill="rgb(197,191,184)" stroke="rgb(197,191,184)" stroke-width="1" opacity="0.8" d="M 154.5 165 L 160 165.5 L 154.5 166 L 154.5 165 Z" />
 <path fill="rgb(197,191,184)" stroke="rgb(197,191,184)" stroke-width="1" opacity="0.8" d="M 162.5 165 L 166 165.5 L 162.5 166 L 162.5 165 Z" />
 <path fill="rgb(197,191,184)" stroke="rgb(197,191,184)" stroke-width="1" opacity="0.8" d="M 274.5 165 L 280 165.5 L 274.5 166 L 274.5 165 Z" />
 <path fill="rgb(197,191,184)" stroke="rgb(197,191,184)" stroke-width="1" opacity="0.8" d="M 282.5 165 L 285 165.5 L 282.5 166 L 282.5 165 Z" />
 <path fill="rgb(197,191,184)" stroke="rgb(197,191,184)" stroke-width="1" opacity="0.8" d="M 93.5 166 L 100 166.5 L 93.5 167 L 93.5 166 Z" />
 <path fill="rgb(197,191,184)" stroke="rgb(197,191,184)" stroke-width="1" opacity="0.8" d="M 102.5 166 L 105 166.5 L 102.5 167 L 102.5 166 Z" />
 <path fill="rgb(197,191,184)" stroke="rgb(197,191,184)" stroke-width="1" opacity="0.8" d="M 213.5 166 L 220 166.5 L 213.5 167 L 213.5 166 Z" />
 <path fill="rgb(197,191,184)" stroke="rgb(197,191,184)" stroke-width="1" opacity="0.8" d="M 222.5 166 L 225 166.5 L 222.5 167 L 222.5 166 Z" />
 <path fill="rgb(197,191,184)" stroke="rgb(197,191,184)" stroke-width="1" opacity="0.8" d="M 33.5 167 L 41 167.5 L 33.5 168 L 33.5 167 Z" />
 <path fill="rgb(197,191,184)" stroke="rgb(197,191,184)" stroke-width="1" opacity="0.8" d="M 42.5 167 L 45 167.5 L 42.5 168 L 42.5 167 Z" />
 <path fill="rgb(197,191,184)" stroke="rgb(197,191,184)" stroke-width="1" opacity="0.8" d="M 153.5 167 L 161 167.5 L 153.5 168 L 153.5 167 Z" />
 <path fill="rgb(197,191,184)" stroke="rgb(197,191,184)" stroke-width="1" opacity="0.8" d="M 272.5 167 L 281 167.5 L 272.5 168 L 272.5 167 Z" />
 <path fill="rgb(197,191,184)" stroke="rgb(197,191,184)" stroke-width="1" opacity="0.8" d="M 92.5 168 L 101 168.5 L 92.5 169 L 92.5 168 Z" />
 <path fill="rgb(197,191,184)" stroke="rgb(197,191,184)" stroke-width="1" opacity="0.8" d="M 211.5 168 L 221 168.5 L 211.5 169 L 211.5 168 Z" />
 <path fill="rgb(197,191,184)" stroke="rgb(197,191,184)" stroke-width="1" opacity="0.8" d="M 31.5 169 L 41 169.5 L 31.5 170 L 31.5 169 Z" />
 <path fill="rgb(197,191,184)" stroke="rgb(197,191,184)" stroke-width="1" opacity="0.8" d="M 150.5 169 L 161 169.5 L 150.5 170 L 150.5 169 Z" />
 <path fill="rgb(197,191,184)" stroke="rgb(197,191,184)" stroke-width="1" opacity="0.8" d="M 270.5 169 L 281 169.5 L 270.5 170 L 270.5 169 Z" />
 <path fill="rgb(197,191,184)" stroke="rgb(197,191,184)" stroke-width="1" opacity="0.8" d="M 90.5 170 L 101 170.5 L 90.5 171 L 90.5 170 Z" />
 <path fill="rgb(197,191,184)" stroke="rgb(197,191,184)" stroke-width="1" opacity="0.8" d="M 209.5 170 L 221 170.5 L 209.5 171 L 209.5 170 Z" />
 <path fill="rgb(197,191,184)" stroke="rgb(197,191,184)" stroke-width="1" opacity="0.8" d="M 29.5 171 L 41 171.5 L 29.5 172 L 29.5 171 Z" />
 <path fill="rgb(197,191,184)" stroke="rgb(197,191,184)" stroke-width="1" opacity="0.8" d="M 149.5 171 L 161 171.5 L 149.5 172 L 149.5 171 Z" />
 <path fill="rgb(197,191,184)" stroke="rgb(197,191,184)" stroke-width="1" opacity="0.8" d="M 269.5 171 L 281 171.5 L 269.5 172 L 269.5 171 Z" />
 <path fill="rgb(197,191,184)" stroke="rgb(197,191,184)" stroke-width="1" opacity="0.8" d="M 89.5 172 L 101 172.5 L 89.5 173 L 89.5 172 Z" />
 <path fill="rgb(197,191,184)" stroke="rgb(197,191,184)" stroke-width="1" opacity="0.8" d="M 209.5 172 L 221 172.5 L 209.5 173 L 209.5 172 Z" />
 <path fill="rgb(197,191,184)" stroke="rgb(197,191,184)" stroke-width="1" opacity="0.8" d="M 34.5 173 L 41 173.5 L 34.5 174 L 34.5 173 Z" />
 <path fill="rgb(197,191,184)" stroke="rgb(197,191,184)" stroke-width="1" opacity="0.8" d="M 155.5 173 L 161 173.5 L 155.5 174 L 155.5 173 Z" />
 <path fill="rgb(197,191,184)" stroke="rgb(197,191,184)" stroke-width="1" opacity="0.8" d="M 277.5 173 L 281 173.5 L 277.5 174 L 277.5 173 Z" />
 <path fill="rgb(197,191,184)" stroke="rgb(197,191,184)" stroke-width="1" opacity="0.8" d="M 98.5 174 L 101 174.5 L 98.5 175 L 98.5 174 Z" />
 <path fill="rgb(197,191,184)" stroke="rgb(197,191,184)" stroke-width="1" opacity="0.8" d="M 92.5 186 L 98 186.5 L 92.5 187 L 92.5 186 Z" />
 <path fill="rgb(197,191,184)" stroke="rgb(197,191,184)" stroke-width="1" opacity="0.8" d="M 212.5 186 L 219 186.5 L 212.5 187 L 212.5 186 Z" />
 <path fill="rgb(197,191,184)" stroke="rgb(197,191,184)" stroke-width="1" opacity="0.8" d="M 32.5 187 L 40 187.5 L 32.5 188 L 32.5 187 Z" />
 <path fill="rgb(197,191,184)" stroke="rgb(197,191,184)" stroke-width="1" opacity="0.8" d="M 152.5 187 L 160 187.5 L 152.5 188 L 152.5 187 Z" />
 <path fill="rgb(197,191,184)" stroke="rgb(197,191,184)" stroke-width="1" opacity="0.8" d="M 272.5 187 L 280 187.5 L 272.5 188 L 272.5 187 Z" />
 <path fill="rgb(197,191,184)" stroke="rgb(197,191,184)" stroke-width="1" opacity="0.8" d="M 92.5 188 L 101 188.5 L 92.5 189 L 92.5 188 Z" />
 <path fill="rgb(197,191,184)" stroke="rgb(197,191,184)" stroke-width="1" opacity="0.8" d="M 212.5 188 L 221 188.5 L 212.5 189 L 212.5 188 Z" />
 <path fill="rgb(197,191,184)" stroke="rgb(197,191,184)" stroke-width="1" opacity="0.8" d="M 32.5 189 L 41 189.5 L 32.5 190 L 32.5 189 Z" />
 <path fill="rgb(197,191,184)" stroke="rgb(197,191,184)" stroke-width="1" opacity="0.8" d="M 152.5 189 L 161 189.5 L 152.5 190 L 152.5 189 Z" />
 <path fill="rgb(197,191,184)" stroke="rgb(197,191,184)" stroke-width="1" opacity="0.8" d="M 273.5 189 L 281 189.5 L 273.5 190 L 273.5 189 Z" />
 <path fill="rgb(197,191,184)" stroke="rgb(197,191,184)" stroke-width="1" opacity="0.8" d="M 93.5 190 L 101 190.5 L 93.5 191 L 93.5 190 Z" />
 <path fill="rgb(197,191,184)" stroke="rgb(197,191,184)" stroke-width="1" opacity="0.8" d="M 214.5 190 L 222 190.5 L 214.5 191 L 214.5 190 Z" />
 <path fill="rgb(197,191,184)" stroke="rgb(197,191,184)" stroke-width="1" opacity="0.8" d="M 34.5 191 L 42 191.5 L 34.5 192 L 34.5 191 Z" />
 <path fill="rgb(197,191,184)" stroke="rgb(197,191,184)" stroke-width="1" opacity="0.8" d="M 154.5 191 L 162 191.5 L 154.5 192 L 154.5 191 Z" />
 <path fill="rgb(197,191,184)" stroke="rgb(197,191,184)" stroke-width="1" opacity="0.8" d="M 275.5 191 L 282 191.5 L 275.5 192 L 275.5 191 Z" />
 <path fill="rgb(197,191,184)" stroke="rgb(197,191,184)" stroke-width="1" opacity="0.8" d="M 95.5 192 L 102 192.5 L 95.5 193 L 95.5 192 Z" />
 <path fill="rgb(197,191,184)" stroke="rgb(197,191,184)" stroke-width="1" opacity="0.8" d="M 215.5 192 L 222 192.5 L 215.5 193 L 215.5 192 Z" />
 <path fill="rgb(197,191,184)" stroke="rgb(197,191,184)" stroke-width="1" opacity="0.8" d="M 35.5 193 L 42 193.5 L 35.5 194 L 35.5 193 Z" />
 <path fill="rgb(197,191,184)" stroke="rgb(197,191,184)" stroke-width="1" opacity="0.8" d="M 155.5 193 L 162 193.5 L 155.5 194 L 155.5 193 Z" />
 <path fill="rgb(197,191,184)" stroke="rgb(197,191,184)" stroke-width="1" opacity="0.8" d="M 276.5 193 L 282 193.5 L 276.5 194 L 276.5 193 Z" />
 <path fill="rgb(197,191,184)" stroke="rgb(197,191,184)" stroke-width="1" opacity="0.8" d="M 97.5 194 L 102 194.5 L 97.5 195 L 97.5 194 Z" />
 <path fill="rgb(197,191,184)" stroke="rgb(197,191,184)" stroke-width="1" opacity="0.8" d="M 217.5 194 L 221 194.5 L 217.5 195 L 217.5 194 Z" />
 <path fill="rgb(197,191,184)" stroke="rgb(197,191,184)" stroke-width="1" opacity="0.8" d="M 37.5 195 L 41 195.5 L 37.5 196 L 37.5 195 Z" />
 <path fill="rgb(197,191,184)" stroke="rgb(197,191,184)" stroke-width="1" opacity="0.8" d="M 158.5 195 L 161 195.5 L 158.5 196 L 158.5 195 Z" />
 <path fill="rgb(197,191,184)" stroke="rgb(197,191,184)" stroke-width="1" opacity="0.8" d="M 278.5 195 L 281 195.5 L 278.5 196 L 278.5 195 Z" />
</svg>